<?xml version="1.0" encoding="utf-8" standalone="no"?>
<!DOCTYPE svg PUBLIC "-//W3C//DTD SVG 1.1//EN"
  "http://www.w3.org/Graphics/SVG/1.1/DTD/svg11.dtd">
<svg height="720pt" version="1.1" viewBox="0 0 1440 720" width="1440pt" xmlns="http://www.w3.org/2000/svg" xmlns:xlink="http://www.w3.org/1999/xlink">
 <metadata>
  <rdf:RDF xmlns:cc="http://creativecommons.org/ns#" xmlns:dc="http://purl.org/dc/elements/1.1/" xmlns:rdf="http://www.w3.org/1999/02/22-rdf-syntax-ns#">
   <cc:Work>
    <dc:type rdf:resource="http://purl.org/dc/dcmitype/StillImage"/>
    <dc:date>2021-06-02T23:48:11.814329</dc:date>
    <dc:format>image/svg+xml</dc:format>
    <dc:creator>
     <cc:Agent>
      <dc:title>Matplotlib v3.4.1, https://matplotlib.org/</dc:title>
     </cc:Agent>
    </dc:creator>
   </cc:Work>
  </rdf:RDF>
 </metadata>
 <defs>
  <style type="text/css">*{stroke-linecap:butt;stroke-linejoin:round;}</style>
 </defs>
 <g id="figure_1">
  <g id="patch_1">
   <path d="M 0 720 
L 1440 720 
L 1440 0 
L 0 0 
z
" style="fill:none;"/>
  </g>
  <g id="axes_1">
   <g id="patch_2">
    <path d="M 180 333.490909 
L 687.272727 333.490909 
L 687.272727 86.4 
L 180 86.4 
z
" style="fill:#ffffff;"/>
   </g>
   <g id="matplotlib.axis_1">
    <g id="xtick_1">
     <g id="line2d_1">
      <defs>
       <path d="M 0 0 
L 0 3.5 
" id="m9f1e660983" style="stroke:#000000;stroke-width:0.8;"/>
      </defs>
      <g>
       <use style="stroke:#000000;stroke-width:0.8;" x="241.59465" xlink:href="#m9f1e660983" y="333.490909"/>
      </g>
     </g>
     <g id="text_1">
      <!-- −75 -->
      <g transform="translate(231.042306 348.089347)scale(0.1 -0.1)">
       <defs>
        <path d="M 678 2272 
L 4684 2272 
L 4684 1741 
L 678 1741 
L 678 2272 
z
" id="DejaVuSans-2212" transform="scale(0.015625)"/>
        <path d="M 525 4666 
L 3525 4666 
L 3525 4397 
L 1831 0 
L 1172 0 
L 2766 4134 
L 525 4134 
L 525 4666 
z
" id="DejaVuSans-37" transform="scale(0.015625)"/>
        <path d="M 691 4666 
L 3169 4666 
L 3169 4134 
L 1269 4134 
L 1269 2991 
Q 1406 3038 1543 3061 
Q 1681 3084 1819 3084 
Q 2600 3084 3056 2656 
Q 3513 2228 3513 1497 
Q 3513 744 3044 326 
Q 2575 -91 1722 -91 
Q 1428 -91 1123 -41 
Q 819 9 494 109 
L 494 744 
Q 775 591 1075 516 
Q 1375 441 1709 441 
Q 2250 441 2565 725 
Q 2881 1009 2881 1497 
Q 2881 1984 2565 2268 
Q 2250 2553 1709 2553 
Q 1456 2553 1204 2497 
Q 953 2441 691 2322 
L 691 4666 
z
" id="DejaVuSans-35" transform="scale(0.015625)"/>
       </defs>
       <use xlink:href="#DejaVuSans-2212"/>
       <use x="83.789062" xlink:href="#DejaVuSans-37"/>
       <use x="147.412109" xlink:href="#DejaVuSans-35"/>
      </g>
     </g>
    </g>
    <g id="xtick_2">
     <g id="line2d_2">
      <g>
       <use style="stroke:#000000;stroke-width:0.8;" x="305.822648" xlink:href="#m9f1e660983" y="333.490909"/>
      </g>
     </g>
     <g id="text_2">
      <!-- −50 -->
      <g transform="translate(295.270304 348.089347)scale(0.1 -0.1)">
       <defs>
        <path d="M 2034 4250 
Q 1547 4250 1301 3770 
Q 1056 3291 1056 2328 
Q 1056 1369 1301 889 
Q 1547 409 2034 409 
Q 2525 409 2770 889 
Q 3016 1369 3016 2328 
Q 3016 3291 2770 3770 
Q 2525 4250 2034 4250 
z
M 2034 4750 
Q 2819 4750 3233 4129 
Q 3647 3509 3647 2328 
Q 3647 1150 3233 529 
Q 2819 -91 2034 -91 
Q 1250 -91 836 529 
Q 422 1150 422 2328 
Q 422 3509 836 4129 
Q 1250 4750 2034 4750 
z
" id="DejaVuSans-30" transform="scale(0.015625)"/>
       </defs>
       <use xlink:href="#DejaVuSans-2212"/>
       <use x="83.789062" xlink:href="#DejaVuSans-35"/>
       <use x="147.412109" xlink:href="#DejaVuSans-30"/>
      </g>
     </g>
    </g>
    <g id="xtick_3">
     <g id="line2d_3">
      <g>
       <use style="stroke:#000000;stroke-width:0.8;" x="370.050646" xlink:href="#m9f1e660983" y="333.490909"/>
      </g>
     </g>
     <g id="text_3">
      <!-- −25 -->
      <g transform="translate(359.498302 348.089347)scale(0.1 -0.1)">
       <defs>
        <path d="M 1228 531 
L 3431 531 
L 3431 0 
L 469 0 
L 469 531 
Q 828 903 1448 1529 
Q 2069 2156 2228 2338 
Q 2531 2678 2651 2914 
Q 2772 3150 2772 3378 
Q 2772 3750 2511 3984 
Q 2250 4219 1831 4219 
Q 1534 4219 1204 4116 
Q 875 4013 500 3803 
L 500 4441 
Q 881 4594 1212 4672 
Q 1544 4750 1819 4750 
Q 2544 4750 2975 4387 
Q 3406 4025 3406 3419 
Q 3406 3131 3298 2873 
Q 3191 2616 2906 2266 
Q 2828 2175 2409 1742 
Q 1991 1309 1228 531 
z
" id="DejaVuSans-32" transform="scale(0.015625)"/>
       </defs>
       <use xlink:href="#DejaVuSans-2212"/>
       <use x="83.789062" xlink:href="#DejaVuSans-32"/>
       <use x="147.412109" xlink:href="#DejaVuSans-35"/>
      </g>
     </g>
    </g>
    <g id="xtick_4">
     <g id="line2d_4">
      <g>
       <use style="stroke:#000000;stroke-width:0.8;" x="434.278644" xlink:href="#m9f1e660983" y="333.490909"/>
      </g>
     </g>
     <g id="text_4">
      <!-- 0 -->
      <g transform="translate(431.097394 348.089347)scale(0.1 -0.1)">
       <use xlink:href="#DejaVuSans-30"/>
      </g>
     </g>
    </g>
    <g id="xtick_5">
     <g id="line2d_5">
      <g>
       <use style="stroke:#000000;stroke-width:0.8;" x="498.506641" xlink:href="#m9f1e660983" y="333.490909"/>
      </g>
     </g>
     <g id="text_5">
      <!-- 25 -->
      <g transform="translate(492.144141 348.089347)scale(0.1 -0.1)">
       <use xlink:href="#DejaVuSans-32"/>
       <use x="63.623047" xlink:href="#DejaVuSans-35"/>
      </g>
     </g>
    </g>
    <g id="xtick_6">
     <g id="line2d_6">
      <g>
       <use style="stroke:#000000;stroke-width:0.8;" x="562.734639" xlink:href="#m9f1e660983" y="333.490909"/>
      </g>
     </g>
     <g id="text_6">
      <!-- 50 -->
      <g transform="translate(556.372139 348.089347)scale(0.1 -0.1)">
       <use xlink:href="#DejaVuSans-35"/>
       <use x="63.623047" xlink:href="#DejaVuSans-30"/>
      </g>
     </g>
    </g>
    <g id="xtick_7">
     <g id="line2d_7">
      <g>
       <use style="stroke:#000000;stroke-width:0.8;" x="626.962637" xlink:href="#m9f1e660983" y="333.490909"/>
      </g>
     </g>
     <g id="text_7">
      <!-- 75 -->
      <g transform="translate(620.600137 348.089347)scale(0.1 -0.1)">
       <use xlink:href="#DejaVuSans-37"/>
       <use x="63.623047" xlink:href="#DejaVuSans-35"/>
      </g>
     </g>
    </g>
    <g id="text_8">
     <!-- Angles -->
     <g transform="translate(416.80277 361.767472)scale(0.1 -0.1)">
      <defs>
       <path d="M 2188 4044 
L 1331 1722 
L 3047 1722 
L 2188 4044 
z
M 1831 4666 
L 2547 4666 
L 4325 0 
L 3669 0 
L 3244 1197 
L 1141 1197 
L 716 0 
L 50 0 
L 1831 4666 
z
" id="DejaVuSans-41" transform="scale(0.015625)"/>
       <path d="M 3513 2113 
L 3513 0 
L 2938 0 
L 2938 2094 
Q 2938 2591 2744 2837 
Q 2550 3084 2163 3084 
Q 1697 3084 1428 2787 
Q 1159 2491 1159 1978 
L 1159 0 
L 581 0 
L 581 3500 
L 1159 3500 
L 1159 2956 
Q 1366 3272 1645 3428 
Q 1925 3584 2291 3584 
Q 2894 3584 3203 3211 
Q 3513 2838 3513 2113 
z
" id="DejaVuSans-6e" transform="scale(0.015625)"/>
       <path d="M 2906 1791 
Q 2906 2416 2648 2759 
Q 2391 3103 1925 3103 
Q 1463 3103 1205 2759 
Q 947 2416 947 1791 
Q 947 1169 1205 825 
Q 1463 481 1925 481 
Q 2391 481 2648 825 
Q 2906 1169 2906 1791 
z
M 3481 434 
Q 3481 -459 3084 -895 
Q 2688 -1331 1869 -1331 
Q 1566 -1331 1297 -1286 
Q 1028 -1241 775 -1147 
L 775 -588 
Q 1028 -725 1275 -790 
Q 1522 -856 1778 -856 
Q 2344 -856 2625 -561 
Q 2906 -266 2906 331 
L 2906 616 
Q 2728 306 2450 153 
Q 2172 0 1784 0 
Q 1141 0 747 490 
Q 353 981 353 1791 
Q 353 2603 747 3093 
Q 1141 3584 1784 3584 
Q 2172 3584 2450 3431 
Q 2728 3278 2906 2969 
L 2906 3500 
L 3481 3500 
L 3481 434 
z
" id="DejaVuSans-67" transform="scale(0.015625)"/>
       <path d="M 603 4863 
L 1178 4863 
L 1178 0 
L 603 0 
L 603 4863 
z
" id="DejaVuSans-6c" transform="scale(0.015625)"/>
       <path d="M 3597 1894 
L 3597 1613 
L 953 1613 
Q 991 1019 1311 708 
Q 1631 397 2203 397 
Q 2534 397 2845 478 
Q 3156 559 3463 722 
L 3463 178 
Q 3153 47 2828 -22 
Q 2503 -91 2169 -91 
Q 1331 -91 842 396 
Q 353 884 353 1716 
Q 353 2575 817 3079 
Q 1281 3584 2069 3584 
Q 2775 3584 3186 3129 
Q 3597 2675 3597 1894 
z
M 3022 2063 
Q 3016 2534 2758 2815 
Q 2500 3097 2075 3097 
Q 1594 3097 1305 2825 
Q 1016 2553 972 2059 
L 3022 2063 
z
" id="DejaVuSans-65" transform="scale(0.015625)"/>
       <path d="M 2834 3397 
L 2834 2853 
Q 2591 2978 2328 3040 
Q 2066 3103 1784 3103 
Q 1356 3103 1142 2972 
Q 928 2841 928 2578 
Q 928 2378 1081 2264 
Q 1234 2150 1697 2047 
L 1894 2003 
Q 2506 1872 2764 1633 
Q 3022 1394 3022 966 
Q 3022 478 2636 193 
Q 2250 -91 1575 -91 
Q 1294 -91 989 -36 
Q 684 19 347 128 
L 347 722 
Q 666 556 975 473 
Q 1284 391 1588 391 
Q 1994 391 2212 530 
Q 2431 669 2431 922 
Q 2431 1156 2273 1281 
Q 2116 1406 1581 1522 
L 1381 1569 
Q 847 1681 609 1914 
Q 372 2147 372 2553 
Q 372 3047 722 3315 
Q 1072 3584 1716 3584 
Q 2034 3584 2315 3537 
Q 2597 3491 2834 3397 
z
" id="DejaVuSans-73" transform="scale(0.015625)"/>
      </defs>
      <use xlink:href="#DejaVuSans-41"/>
      <use x="68.408203" xlink:href="#DejaVuSans-6e"/>
      <use x="131.787109" xlink:href="#DejaVuSans-67"/>
      <use x="195.263672" xlink:href="#DejaVuSans-6c"/>
      <use x="223.046875" xlink:href="#DejaVuSans-65"/>
      <use x="284.570312" xlink:href="#DejaVuSans-73"/>
     </g>
    </g>
   </g>
   <g id="matplotlib.axis_2">
    <g id="ytick_1">
     <g id="line2d_8">
      <defs>
       <path d="M 0 0 
L -3.5 0 
" id="m9f9ab59e5e" style="stroke:#000000;stroke-width:0.8;"/>
      </defs>
      <g>
       <use style="stroke:#000000;stroke-width:0.8;" x="180" xlink:href="#m9f9ab59e5e" y="333.127697"/>
      </g>
     </g>
     <g id="text_9">
      <!-- −60 -->
      <g transform="translate(151.895312 336.926916)scale(0.1 -0.1)">
       <defs>
        <path d="M 2113 2584 
Q 1688 2584 1439 2293 
Q 1191 2003 1191 1497 
Q 1191 994 1439 701 
Q 1688 409 2113 409 
Q 2538 409 2786 701 
Q 3034 994 3034 1497 
Q 3034 2003 2786 2293 
Q 2538 2584 2113 2584 
z
M 3366 4563 
L 3366 3988 
Q 3128 4100 2886 4159 
Q 2644 4219 2406 4219 
Q 1781 4219 1451 3797 
Q 1122 3375 1075 2522 
Q 1259 2794 1537 2939 
Q 1816 3084 2150 3084 
Q 2853 3084 3261 2657 
Q 3669 2231 3669 1497 
Q 3669 778 3244 343 
Q 2819 -91 2113 -91 
Q 1303 -91 875 529 
Q 447 1150 447 2328 
Q 447 3434 972 4092 
Q 1497 4750 2381 4750 
Q 2619 4750 2861 4703 
Q 3103 4656 3366 4563 
z
" id="DejaVuSans-36" transform="scale(0.015625)"/>
       </defs>
       <use xlink:href="#DejaVuSans-2212"/>
       <use x="83.789062" xlink:href="#DejaVuSans-36"/>
       <use x="147.412109" xlink:href="#DejaVuSans-30"/>
      </g>
     </g>
    </g>
    <g id="ytick_2">
     <g id="line2d_9">
      <g>
       <use style="stroke:#000000;stroke-width:0.8;" x="180" xlink:href="#m9f9ab59e5e" y="293.878315"/>
      </g>
     </g>
     <g id="text_10">
      <!-- −50 -->
      <g transform="translate(151.895312 297.677534)scale(0.1 -0.1)">
       <use xlink:href="#DejaVuSans-2212"/>
       <use x="83.789062" xlink:href="#DejaVuSans-35"/>
       <use x="147.412109" xlink:href="#DejaVuSans-30"/>
      </g>
     </g>
    </g>
    <g id="ytick_3">
     <g id="line2d_10">
      <g>
       <use style="stroke:#000000;stroke-width:0.8;" x="180" xlink:href="#m9f9ab59e5e" y="254.628933"/>
      </g>
     </g>
     <g id="text_11">
      <!-- −40 -->
      <g transform="translate(151.895312 258.428152)scale(0.1 -0.1)">
       <defs>
        <path d="M 2419 4116 
L 825 1625 
L 2419 1625 
L 2419 4116 
z
M 2253 4666 
L 3047 4666 
L 3047 1625 
L 3713 1625 
L 3713 1100 
L 3047 1100 
L 3047 0 
L 2419 0 
L 2419 1100 
L 313 1100 
L 313 1709 
L 2253 4666 
z
" id="DejaVuSans-34" transform="scale(0.015625)"/>
       </defs>
       <use xlink:href="#DejaVuSans-2212"/>
       <use x="83.789062" xlink:href="#DejaVuSans-34"/>
       <use x="147.412109" xlink:href="#DejaVuSans-30"/>
      </g>
     </g>
    </g>
    <g id="ytick_4">
     <g id="line2d_11">
      <g>
       <use style="stroke:#000000;stroke-width:0.8;" x="180" xlink:href="#m9f9ab59e5e" y="215.379551"/>
      </g>
     </g>
     <g id="text_12">
      <!-- −30 -->
      <g transform="translate(151.895312 219.17877)scale(0.1 -0.1)">
       <defs>
        <path d="M 2597 2516 
Q 3050 2419 3304 2112 
Q 3559 1806 3559 1356 
Q 3559 666 3084 287 
Q 2609 -91 1734 -91 
Q 1441 -91 1130 -33 
Q 819 25 488 141 
L 488 750 
Q 750 597 1062 519 
Q 1375 441 1716 441 
Q 2309 441 2620 675 
Q 2931 909 2931 1356 
Q 2931 1769 2642 2001 
Q 2353 2234 1838 2234 
L 1294 2234 
L 1294 2753 
L 1863 2753 
Q 2328 2753 2575 2939 
Q 2822 3125 2822 3475 
Q 2822 3834 2567 4026 
Q 2313 4219 1838 4219 
Q 1578 4219 1281 4162 
Q 984 4106 628 3988 
L 628 4550 
Q 988 4650 1302 4700 
Q 1616 4750 1894 4750 
Q 2613 4750 3031 4423 
Q 3450 4097 3450 3541 
Q 3450 3153 3228 2886 
Q 3006 2619 2597 2516 
z
" id="DejaVuSans-33" transform="scale(0.015625)"/>
       </defs>
       <use xlink:href="#DejaVuSans-2212"/>
       <use x="83.789062" xlink:href="#DejaVuSans-33"/>
       <use x="147.412109" xlink:href="#DejaVuSans-30"/>
      </g>
     </g>
    </g>
    <g id="ytick_5">
     <g id="line2d_12">
      <g>
       <use style="stroke:#000000;stroke-width:0.8;" x="180" xlink:href="#m9f9ab59e5e" y="176.130169"/>
      </g>
     </g>
     <g id="text_13">
      <!-- −20 -->
      <g transform="translate(151.895312 179.929388)scale(0.1 -0.1)">
       <use xlink:href="#DejaVuSans-2212"/>
       <use x="83.789062" xlink:href="#DejaVuSans-32"/>
       <use x="147.412109" xlink:href="#DejaVuSans-30"/>
      </g>
     </g>
    </g>
    <g id="ytick_6">
     <g id="line2d_13">
      <g>
       <use style="stroke:#000000;stroke-width:0.8;" x="180" xlink:href="#m9f9ab59e5e" y="136.880787"/>
      </g>
     </g>
     <g id="text_14">
      <!-- −10 -->
      <g transform="translate(151.895312 140.680006)scale(0.1 -0.1)">
       <defs>
        <path d="M 794 531 
L 1825 531 
L 1825 4091 
L 703 3866 
L 703 4441 
L 1819 4666 
L 2450 4666 
L 2450 531 
L 3481 531 
L 3481 0 
L 794 0 
L 794 531 
z
" id="DejaVuSans-31" transform="scale(0.015625)"/>
       </defs>
       <use xlink:href="#DejaVuSans-2212"/>
       <use x="83.789062" xlink:href="#DejaVuSans-31"/>
       <use x="147.412109" xlink:href="#DejaVuSans-30"/>
      </g>
     </g>
    </g>
    <g id="ytick_7">
     <g id="line2d_14">
      <g>
       <use style="stroke:#000000;stroke-width:0.8;" x="180" xlink:href="#m9f9ab59e5e" y="97.631405"/>
      </g>
     </g>
     <g id="text_15">
      <!-- 0 -->
      <g transform="translate(166.6375 101.430624)scale(0.1 -0.1)">
       <use xlink:href="#DejaVuSans-30"/>
      </g>
     </g>
    </g>
    <g id="text_16">
     <!-- Spectrum[db] -->
     <g transform="translate(145.815625 244.424361)rotate(-90)scale(0.1 -0.1)">
      <defs>
       <path d="M 3425 4513 
L 3425 3897 
Q 3066 4069 2747 4153 
Q 2428 4238 2131 4238 
Q 1616 4238 1336 4038 
Q 1056 3838 1056 3469 
Q 1056 3159 1242 3001 
Q 1428 2844 1947 2747 
L 2328 2669 
Q 3034 2534 3370 2195 
Q 3706 1856 3706 1288 
Q 3706 609 3251 259 
Q 2797 -91 1919 -91 
Q 1588 -91 1214 -16 
Q 841 59 441 206 
L 441 856 
Q 825 641 1194 531 
Q 1563 422 1919 422 
Q 2459 422 2753 634 
Q 3047 847 3047 1241 
Q 3047 1584 2836 1778 
Q 2625 1972 2144 2069 
L 1759 2144 
Q 1053 2284 737 2584 
Q 422 2884 422 3419 
Q 422 4038 858 4394 
Q 1294 4750 2059 4750 
Q 2388 4750 2728 4690 
Q 3069 4631 3425 4513 
z
" id="DejaVuSans-53" transform="scale(0.015625)"/>
       <path d="M 1159 525 
L 1159 -1331 
L 581 -1331 
L 581 3500 
L 1159 3500 
L 1159 2969 
Q 1341 3281 1617 3432 
Q 1894 3584 2278 3584 
Q 2916 3584 3314 3078 
Q 3713 2572 3713 1747 
Q 3713 922 3314 415 
Q 2916 -91 2278 -91 
Q 1894 -91 1617 61 
Q 1341 213 1159 525 
z
M 3116 1747 
Q 3116 2381 2855 2742 
Q 2594 3103 2138 3103 
Q 1681 3103 1420 2742 
Q 1159 2381 1159 1747 
Q 1159 1113 1420 752 
Q 1681 391 2138 391 
Q 2594 391 2855 752 
Q 3116 1113 3116 1747 
z
" id="DejaVuSans-70" transform="scale(0.015625)"/>
       <path d="M 3122 3366 
L 3122 2828 
Q 2878 2963 2633 3030 
Q 2388 3097 2138 3097 
Q 1578 3097 1268 2742 
Q 959 2388 959 1747 
Q 959 1106 1268 751 
Q 1578 397 2138 397 
Q 2388 397 2633 464 
Q 2878 531 3122 666 
L 3122 134 
Q 2881 22 2623 -34 
Q 2366 -91 2075 -91 
Q 1284 -91 818 406 
Q 353 903 353 1747 
Q 353 2603 823 3093 
Q 1294 3584 2113 3584 
Q 2378 3584 2631 3529 
Q 2884 3475 3122 3366 
z
" id="DejaVuSans-63" transform="scale(0.015625)"/>
       <path d="M 1172 4494 
L 1172 3500 
L 2356 3500 
L 2356 3053 
L 1172 3053 
L 1172 1153 
Q 1172 725 1289 603 
Q 1406 481 1766 481 
L 2356 481 
L 2356 0 
L 1766 0 
Q 1100 0 847 248 
Q 594 497 594 1153 
L 594 3053 
L 172 3053 
L 172 3500 
L 594 3500 
L 594 4494 
L 1172 4494 
z
" id="DejaVuSans-74" transform="scale(0.015625)"/>
       <path d="M 2631 2963 
Q 2534 3019 2420 3045 
Q 2306 3072 2169 3072 
Q 1681 3072 1420 2755 
Q 1159 2438 1159 1844 
L 1159 0 
L 581 0 
L 581 3500 
L 1159 3500 
L 1159 2956 
Q 1341 3275 1631 3429 
Q 1922 3584 2338 3584 
Q 2397 3584 2469 3576 
Q 2541 3569 2628 3553 
L 2631 2963 
z
" id="DejaVuSans-72" transform="scale(0.015625)"/>
       <path d="M 544 1381 
L 544 3500 
L 1119 3500 
L 1119 1403 
Q 1119 906 1312 657 
Q 1506 409 1894 409 
Q 2359 409 2629 706 
Q 2900 1003 2900 1516 
L 2900 3500 
L 3475 3500 
L 3475 0 
L 2900 0 
L 2900 538 
Q 2691 219 2414 64 
Q 2138 -91 1772 -91 
Q 1169 -91 856 284 
Q 544 659 544 1381 
z
M 1991 3584 
L 1991 3584 
z
" id="DejaVuSans-75" transform="scale(0.015625)"/>
       <path d="M 3328 2828 
Q 3544 3216 3844 3400 
Q 4144 3584 4550 3584 
Q 5097 3584 5394 3201 
Q 5691 2819 5691 2113 
L 5691 0 
L 5113 0 
L 5113 2094 
Q 5113 2597 4934 2840 
Q 4756 3084 4391 3084 
Q 3944 3084 3684 2787 
Q 3425 2491 3425 1978 
L 3425 0 
L 2847 0 
L 2847 2094 
Q 2847 2600 2669 2842 
Q 2491 3084 2119 3084 
Q 1678 3084 1418 2786 
Q 1159 2488 1159 1978 
L 1159 0 
L 581 0 
L 581 3500 
L 1159 3500 
L 1159 2956 
Q 1356 3278 1631 3431 
Q 1906 3584 2284 3584 
Q 2666 3584 2933 3390 
Q 3200 3197 3328 2828 
z
" id="DejaVuSans-6d" transform="scale(0.015625)"/>
       <path d="M 550 4863 
L 1875 4863 
L 1875 4416 
L 1125 4416 
L 1125 -397 
L 1875 -397 
L 1875 -844 
L 550 -844 
L 550 4863 
z
" id="DejaVuSans-5b" transform="scale(0.015625)"/>
       <path d="M 2906 2969 
L 2906 4863 
L 3481 4863 
L 3481 0 
L 2906 0 
L 2906 525 
Q 2725 213 2448 61 
Q 2172 -91 1784 -91 
Q 1150 -91 751 415 
Q 353 922 353 1747 
Q 353 2572 751 3078 
Q 1150 3584 1784 3584 
Q 2172 3584 2448 3432 
Q 2725 3281 2906 2969 
z
M 947 1747 
Q 947 1113 1208 752 
Q 1469 391 1925 391 
Q 2381 391 2643 752 
Q 2906 1113 2906 1747 
Q 2906 2381 2643 2742 
Q 2381 3103 1925 3103 
Q 1469 3103 1208 2742 
Q 947 2381 947 1747 
z
" id="DejaVuSans-64" transform="scale(0.015625)"/>
       <path d="M 3116 1747 
Q 3116 2381 2855 2742 
Q 2594 3103 2138 3103 
Q 1681 3103 1420 2742 
Q 1159 2381 1159 1747 
Q 1159 1113 1420 752 
Q 1681 391 2138 391 
Q 2594 391 2855 752 
Q 3116 1113 3116 1747 
z
M 1159 2969 
Q 1341 3281 1617 3432 
Q 1894 3584 2278 3584 
Q 2916 3584 3314 3078 
Q 3713 2572 3713 1747 
Q 3713 922 3314 415 
Q 2916 -91 2278 -91 
Q 1894 -91 1617 61 
Q 1341 213 1159 525 
L 1159 0 
L 581 0 
L 581 4863 
L 1159 4863 
L 1159 2969 
z
" id="DejaVuSans-62" transform="scale(0.015625)"/>
       <path d="M 1947 4863 
L 1947 -844 
L 622 -844 
L 622 -397 
L 1369 -397 
L 1369 4416 
L 622 4416 
L 622 4863 
L 1947 4863 
z
" id="DejaVuSans-5d" transform="scale(0.015625)"/>
      </defs>
      <use xlink:href="#DejaVuSans-53"/>
      <use x="63.476562" xlink:href="#DejaVuSans-70"/>
      <use x="126.953125" xlink:href="#DejaVuSans-65"/>
      <use x="188.476562" xlink:href="#DejaVuSans-63"/>
      <use x="243.457031" xlink:href="#DejaVuSans-74"/>
      <use x="282.666016" xlink:href="#DejaVuSans-72"/>
      <use x="323.779297" xlink:href="#DejaVuSans-75"/>
      <use x="387.158203" xlink:href="#DejaVuSans-6d"/>
      <use x="484.570312" xlink:href="#DejaVuSans-5b"/>
      <use x="523.583984" xlink:href="#DejaVuSans-64"/>
      <use x="587.060547" xlink:href="#DejaVuSans-62"/>
      <use x="650.537109" xlink:href="#DejaVuSans-5d"/>
     </g>
    </g>
   </g>
   <g id="line2d_15">
    <path clip-path="url(#pdbb81f6d1e)" d="M 203.057851 304.15282 
L 209.480651 304.248266 
L 215.903451 304.532323 
L 223.610811 305.112359 
L 231.31817 305.934538 
L 239.02553 306.971835 
L 248.01745 308.409475 
L 258.293929 310.278272 
L 274.993209 313.583906 
L 292.977048 317.081842 
L 303.253528 318.854506 
L 312.245448 320.177498 
L 319.952807 321.09379 
L 327.660167 321.769553 
L 334.082967 322.121982 
L 340.505767 322.259504 
L 346.928566 322.159607 
L 353.351366 321.79877 
L 358.489606 321.305461 
L 363.627846 320.615374 
L 368.766086 319.713551 
L 373.904326 318.583528 
L 379.042565 317.206879 
L 384.180805 315.562637 
L 389.319045 313.626512 
L 393.172725 311.965821 
L 397.026405 310.110749 
L 400.880085 308.044791 
L 404.733765 305.748479 
L 408.587444 303.198523 
L 412.441124 300.366607 
L 416.294804 297.217693 
L 420.148484 293.707533 
L 424.002164 289.778923 
L 426.571284 286.890859 
L 429.140404 283.754602 
L 431.709524 280.333743 
L 434.278644 276.58162 
L 436.847764 272.436993 
L 439.416883 267.817141 
L 441.986003 262.606324 
L 444.555123 256.63525 
L 447.124243 249.641566 
L 448.408803 245.634879 
L 449.693363 241.185433 
L 450.977923 236.177302 
L 452.262483 230.440338 
L 453.547043 223.709953 
L 454.831603 215.540945 
L 456.116163 205.093266 
L 457.400723 190.461131 
L 458.685283 165.44676 
L 459.969843 97.631405 
L 461.254403 168.440731 
L 462.538963 190.381279 
L 463.823523 203.267889 
L 465.108083 212.307219 
L 466.392643 219.201725 
L 467.677203 224.722858 
L 468.961762 229.285982 
L 470.246322 233.140422 
L 471.530882 236.447539 
L 472.815442 239.317706 
L 474.100002 241.829685 
L 475.384562 244.041585 
L 476.669122 245.997449 
L 477.953682 247.731395 
L 479.238242 249.270335 
L 481.807362 251.845308 
L 484.376482 253.85102 
L 486.945602 255.374719 
L 489.514722 256.476783 
L 492.083842 257.199053 
L 494.652962 257.569781 
L 497.222082 257.606587 
L 499.791201 257.318149 
L 502.360321 256.704975 
L 504.929441 255.759421 
L 507.498561 254.464963 
L 510.067681 252.794559 
L 512.636801 250.707773 
L 515.205921 248.145957 
L 517.775041 245.024152 
L 520.344161 241.216986 
L 521.628721 239.00019 
L 522.913281 236.532672 
L 524.197841 233.77167 
L 525.482401 230.660883 
L 526.766961 227.12421 
L 528.051521 223.055393 
L 529.33608 218.299827 
L 530.62064 212.620164 
L 531.9052 205.62457 
L 533.18976 196.595147 
L 534.47432 183.983474 
L 535.75888 163.277572 
L 537.04344 103.893179 
L 538.328 152.596887 
L 539.61256 179.428117 
L 540.89712 194.455174 
L 542.18168 204.966034 
L 543.46624 213.070795 
L 544.7508 219.675553 
L 546.03536 225.253326 
L 547.31992 230.082468 
L 548.60448 234.340733 
L 549.88904 238.148602 
L 552.45816 244.732406 
L 555.02728 250.287543 
L 557.5964 255.083456 
L 560.165519 259.293551 
L 562.734639 263.036193 
L 565.303759 266.395909 
L 567.872879 269.435265 
L 570.441999 272.201943 
L 573.011119 274.733172 
L 576.864799 278.151872 
L 580.718479 281.18416 
L 584.572159 283.888731 
L 588.425839 286.31104 
L 592.279518 288.487094 
L 596.133198 290.445966 
L 601.271438 292.760578 
L 606.409678 294.77684 
L 611.547918 296.531236 
L 616.686158 298.053255 
L 621.824397 299.366985 
L 628.247197 300.74606 
L 634.669997 301.861522 
L 641.092797 302.737655 
L 647.515597 303.393024 
L 653.938396 303.841255 
L 660.361196 304.091545 
L 664.214876 304.148994 
L 664.214876 304.148994 
" style="fill:none;stroke:#1f77b4;stroke-linecap:square;stroke-width:1.5;"/>
   </g>
   <g id="line2d_16">
    <defs>
     <path d="M -3 3 
L 3 -3 
M -3 -3 
L 3 3 
" id="m2d7dfcd798" style="stroke:#ff7f0e;"/>
    </defs>
    <g clip-path="url(#pdbb81f6d1e)">
     <use style="fill:#ff7f0e;stroke:#ff7f0e;" x="459.969843" xlink:href="#m2d7dfcd798" y="97.631405"/>
     <use style="fill:#ff7f0e;stroke:#ff7f0e;" x="537.04344" xlink:href="#m2d7dfcd798" y="97.631405"/>
    </g>
   </g>
   <g id="patch_3">
    <path d="M 180 333.490909 
L 180 86.4 
" style="fill:none;stroke:#000000;stroke-linecap:square;stroke-linejoin:miter;stroke-width:0.8;"/>
   </g>
   <g id="patch_4">
    <path d="M 687.272727 333.490909 
L 687.272727 86.4 
" style="fill:none;stroke:#000000;stroke-linecap:square;stroke-linejoin:miter;stroke-width:0.8;"/>
   </g>
   <g id="patch_5">
    <path d="M 180 333.490909 
L 687.272727 333.490909 
" style="fill:none;stroke:#000000;stroke-linecap:square;stroke-linejoin:miter;stroke-width:0.8;"/>
   </g>
   <g id="patch_6">
    <path d="M 180 86.4 
L 687.272727 86.4 
" style="fill:none;stroke:#000000;stroke-linecap:square;stroke-linejoin:miter;stroke-width:0.8;"/>
   </g>
   <g id="text_17">
    <!-- Wide Angles / Uncorrelated Frequencies -->
    <g transform="translate(314.147301 80.4)scale(0.12 -0.12)">
     <defs>
      <path d="M 213 4666 
L 850 4666 
L 1831 722 
L 2809 4666 
L 3519 4666 
L 4500 722 
L 5478 4666 
L 6119 4666 
L 4947 0 
L 4153 0 
L 3169 4050 
L 2175 0 
L 1381 0 
L 213 4666 
z
" id="DejaVuSans-57" transform="scale(0.015625)"/>
      <path d="M 603 3500 
L 1178 3500 
L 1178 0 
L 603 0 
L 603 3500 
z
M 603 4863 
L 1178 4863 
L 1178 4134 
L 603 4134 
L 603 4863 
z
" id="DejaVuSans-69" transform="scale(0.015625)"/>
      <path id="DejaVuSans-20" transform="scale(0.015625)"/>
      <path d="M 1625 4666 
L 2156 4666 
L 531 -594 
L 0 -594 
L 1625 4666 
z
" id="DejaVuSans-2f" transform="scale(0.015625)"/>
      <path d="M 556 4666 
L 1191 4666 
L 1191 1831 
Q 1191 1081 1462 751 
Q 1734 422 2344 422 
Q 2950 422 3222 751 
Q 3494 1081 3494 1831 
L 3494 4666 
L 4128 4666 
L 4128 1753 
Q 4128 841 3676 375 
Q 3225 -91 2344 -91 
Q 1459 -91 1007 375 
Q 556 841 556 1753 
L 556 4666 
z
" id="DejaVuSans-55" transform="scale(0.015625)"/>
      <path d="M 1959 3097 
Q 1497 3097 1228 2736 
Q 959 2375 959 1747 
Q 959 1119 1226 758 
Q 1494 397 1959 397 
Q 2419 397 2687 759 
Q 2956 1122 2956 1747 
Q 2956 2369 2687 2733 
Q 2419 3097 1959 3097 
z
M 1959 3584 
Q 2709 3584 3137 3096 
Q 3566 2609 3566 1747 
Q 3566 888 3137 398 
Q 2709 -91 1959 -91 
Q 1206 -91 779 398 
Q 353 888 353 1747 
Q 353 2609 779 3096 
Q 1206 3584 1959 3584 
z
" id="DejaVuSans-6f" transform="scale(0.015625)"/>
      <path d="M 2194 1759 
Q 1497 1759 1228 1600 
Q 959 1441 959 1056 
Q 959 750 1161 570 
Q 1363 391 1709 391 
Q 2188 391 2477 730 
Q 2766 1069 2766 1631 
L 2766 1759 
L 2194 1759 
z
M 3341 1997 
L 3341 0 
L 2766 0 
L 2766 531 
Q 2569 213 2275 61 
Q 1981 -91 1556 -91 
Q 1019 -91 701 211 
Q 384 513 384 1019 
Q 384 1609 779 1909 
Q 1175 2209 1959 2209 
L 2766 2209 
L 2766 2266 
Q 2766 2663 2505 2880 
Q 2244 3097 1772 3097 
Q 1472 3097 1187 3025 
Q 903 2953 641 2809 
L 641 3341 
Q 956 3463 1253 3523 
Q 1550 3584 1831 3584 
Q 2591 3584 2966 3190 
Q 3341 2797 3341 1997 
z
" id="DejaVuSans-61" transform="scale(0.015625)"/>
      <path d="M 628 4666 
L 3309 4666 
L 3309 4134 
L 1259 4134 
L 1259 2759 
L 3109 2759 
L 3109 2228 
L 1259 2228 
L 1259 0 
L 628 0 
L 628 4666 
z
" id="DejaVuSans-46" transform="scale(0.015625)"/>
      <path d="M 947 1747 
Q 947 1113 1208 752 
Q 1469 391 1925 391 
Q 2381 391 2643 752 
Q 2906 1113 2906 1747 
Q 2906 2381 2643 2742 
Q 2381 3103 1925 3103 
Q 1469 3103 1208 2742 
Q 947 2381 947 1747 
z
M 2906 525 
Q 2725 213 2448 61 
Q 2172 -91 1784 -91 
Q 1150 -91 751 415 
Q 353 922 353 1747 
Q 353 2572 751 3078 
Q 1150 3584 1784 3584 
Q 2172 3584 2448 3432 
Q 2725 3281 2906 2969 
L 2906 3500 
L 3481 3500 
L 3481 -1331 
L 2906 -1331 
L 2906 525 
z
" id="DejaVuSans-71" transform="scale(0.015625)"/>
     </defs>
     <use xlink:href="#DejaVuSans-57"/>
     <use x="96.626953" xlink:href="#DejaVuSans-69"/>
     <use x="124.410156" xlink:href="#DejaVuSans-64"/>
     <use x="187.886719" xlink:href="#DejaVuSans-65"/>
     <use x="249.410156" xlink:href="#DejaVuSans-20"/>
     <use x="281.197266" xlink:href="#DejaVuSans-41"/>
     <use x="349.605469" xlink:href="#DejaVuSans-6e"/>
     <use x="412.984375" xlink:href="#DejaVuSans-67"/>
     <use x="476.460938" xlink:href="#DejaVuSans-6c"/>
     <use x="504.244141" xlink:href="#DejaVuSans-65"/>
     <use x="565.767578" xlink:href="#DejaVuSans-73"/>
     <use x="617.867188" xlink:href="#DejaVuSans-20"/>
     <use x="649.654297" xlink:href="#DejaVuSans-2f"/>
     <use x="683.345703" xlink:href="#DejaVuSans-20"/>
     <use x="715.132812" xlink:href="#DejaVuSans-55"/>
     <use x="788.326172" xlink:href="#DejaVuSans-6e"/>
     <use x="851.705078" xlink:href="#DejaVuSans-63"/>
     <use x="906.685547" xlink:href="#DejaVuSans-6f"/>
     <use x="967.867188" xlink:href="#DejaVuSans-72"/>
     <use x="1007.230469" xlink:href="#DejaVuSans-72"/>
     <use x="1046.09375" xlink:href="#DejaVuSans-65"/>
     <use x="1107.617188" xlink:href="#DejaVuSans-6c"/>
     <use x="1135.400391" xlink:href="#DejaVuSans-61"/>
     <use x="1196.679688" xlink:href="#DejaVuSans-74"/>
     <use x="1235.888672" xlink:href="#DejaVuSans-65"/>
     <use x="1297.412109" xlink:href="#DejaVuSans-64"/>
     <use x="1360.888672" xlink:href="#DejaVuSans-20"/>
     <use x="1392.675781" xlink:href="#DejaVuSans-46"/>
     <use x="1442.945312" xlink:href="#DejaVuSans-72"/>
     <use x="1481.808594" xlink:href="#DejaVuSans-65"/>
     <use x="1543.332031" xlink:href="#DejaVuSans-71"/>
     <use x="1606.808594" xlink:href="#DejaVuSans-75"/>
     <use x="1670.1875" xlink:href="#DejaVuSans-65"/>
     <use x="1731.710938" xlink:href="#DejaVuSans-6e"/>
     <use x="1795.089844" xlink:href="#DejaVuSans-63"/>
     <use x="1850.070312" xlink:href="#DejaVuSans-69"/>
     <use x="1877.853516" xlink:href="#DejaVuSans-65"/>
     <use x="1939.376953" xlink:href="#DejaVuSans-73"/>
    </g>
   </g>
  </g>
  <g id="axes_2">
   <g id="patch_7">
    <path d="M 788.727273 333.490909 
L 1296 333.490909 
L 1296 86.4 
L 788.727273 86.4 
z
" style="fill:#ffffff;"/>
   </g>
   <g id="matplotlib.axis_3">
    <g id="xtick_8">
     <g id="line2d_17">
      <g>
       <use style="stroke:#000000;stroke-width:0.8;" x="850.321923" xlink:href="#m9f1e660983" y="333.490909"/>
      </g>
     </g>
     <g id="text_18">
      <!-- −75 -->
      <g transform="translate(839.769579 348.089347)scale(0.1 -0.1)">
       <use xlink:href="#DejaVuSans-2212"/>
       <use x="83.789062" xlink:href="#DejaVuSans-37"/>
       <use x="147.412109" xlink:href="#DejaVuSans-35"/>
      </g>
     </g>
    </g>
    <g id="xtick_9">
     <g id="line2d_18">
      <g>
       <use style="stroke:#000000;stroke-width:0.8;" x="914.549921" xlink:href="#m9f1e660983" y="333.490909"/>
      </g>
     </g>
     <g id="text_19">
      <!-- −50 -->
      <g transform="translate(903.997577 348.089347)scale(0.1 -0.1)">
       <use xlink:href="#DejaVuSans-2212"/>
       <use x="83.789062" xlink:href="#DejaVuSans-35"/>
       <use x="147.412109" xlink:href="#DejaVuSans-30"/>
      </g>
     </g>
    </g>
    <g id="xtick_10">
     <g id="line2d_19">
      <g>
       <use style="stroke:#000000;stroke-width:0.8;" x="978.777918" xlink:href="#m9f1e660983" y="333.490909"/>
      </g>
     </g>
     <g id="text_20">
      <!-- −25 -->
      <g transform="translate(968.225575 348.089347)scale(0.1 -0.1)">
       <use xlink:href="#DejaVuSans-2212"/>
       <use x="83.789062" xlink:href="#DejaVuSans-32"/>
       <use x="147.412109" xlink:href="#DejaVuSans-35"/>
      </g>
     </g>
    </g>
    <g id="xtick_11">
     <g id="line2d_20">
      <g>
       <use style="stroke:#000000;stroke-width:0.8;" x="1043.005916" xlink:href="#m9f1e660983" y="333.490909"/>
      </g>
     </g>
     <g id="text_21">
      <!-- 0 -->
      <g transform="translate(1039.824666 348.089347)scale(0.1 -0.1)">
       <use xlink:href="#DejaVuSans-30"/>
      </g>
     </g>
    </g>
    <g id="xtick_12">
     <g id="line2d_21">
      <g>
       <use style="stroke:#000000;stroke-width:0.8;" x="1107.233914" xlink:href="#m9f1e660983" y="333.490909"/>
      </g>
     </g>
     <g id="text_22">
      <!-- 25 -->
      <g transform="translate(1100.871414 348.089347)scale(0.1 -0.1)">
       <use xlink:href="#DejaVuSans-32"/>
       <use x="63.623047" xlink:href="#DejaVuSans-35"/>
      </g>
     </g>
    </g>
    <g id="xtick_13">
     <g id="line2d_22">
      <g>
       <use style="stroke:#000000;stroke-width:0.8;" x="1171.461912" xlink:href="#m9f1e660983" y="333.490909"/>
      </g>
     </g>
     <g id="text_23">
      <!-- 50 -->
      <g transform="translate(1165.099412 348.089347)scale(0.1 -0.1)">
       <use xlink:href="#DejaVuSans-35"/>
       <use x="63.623047" xlink:href="#DejaVuSans-30"/>
      </g>
     </g>
    </g>
    <g id="xtick_14">
     <g id="line2d_23">
      <g>
       <use style="stroke:#000000;stroke-width:0.8;" x="1235.68991" xlink:href="#m9f1e660983" y="333.490909"/>
      </g>
     </g>
     <g id="text_24">
      <!-- 75 -->
      <g transform="translate(1229.32741 348.089347)scale(0.1 -0.1)">
       <use xlink:href="#DejaVuSans-37"/>
       <use x="63.623047" xlink:href="#DejaVuSans-35"/>
      </g>
     </g>
    </g>
    <g id="text_25">
     <!-- Angles -->
     <g transform="translate(1025.530043 361.767472)scale(0.1 -0.1)">
      <use xlink:href="#DejaVuSans-41"/>
      <use x="68.408203" xlink:href="#DejaVuSans-6e"/>
      <use x="131.787109" xlink:href="#DejaVuSans-67"/>
      <use x="195.263672" xlink:href="#DejaVuSans-6c"/>
      <use x="223.046875" xlink:href="#DejaVuSans-65"/>
      <use x="284.570312" xlink:href="#DejaVuSans-73"/>
     </g>
    </g>
   </g>
   <g id="matplotlib.axis_4">
    <g id="ytick_8">
     <g id="line2d_24">
      <g>
       <use style="stroke:#000000;stroke-width:0.8;" x="788.727273" xlink:href="#m9f9ab59e5e" y="325.76316"/>
      </g>
     </g>
     <g id="text_26">
      <!-- −50 -->
      <g transform="translate(760.622585 329.562379)scale(0.1 -0.1)">
       <use xlink:href="#DejaVuSans-2212"/>
       <use x="83.789062" xlink:href="#DejaVuSans-35"/>
       <use x="147.412109" xlink:href="#DejaVuSans-30"/>
      </g>
     </g>
    </g>
    <g id="ytick_9">
     <g id="line2d_25">
      <g>
       <use style="stroke:#000000;stroke-width:0.8;" x="788.727273" xlink:href="#m9f9ab59e5e" y="280.136809"/>
      </g>
     </g>
     <g id="text_27">
      <!-- −40 -->
      <g transform="translate(760.622585 283.936028)scale(0.1 -0.1)">
       <use xlink:href="#DejaVuSans-2212"/>
       <use x="83.789062" xlink:href="#DejaVuSans-34"/>
       <use x="147.412109" xlink:href="#DejaVuSans-30"/>
      </g>
     </g>
    </g>
    <g id="ytick_10">
     <g id="line2d_26">
      <g>
       <use style="stroke:#000000;stroke-width:0.8;" x="788.727273" xlink:href="#m9f9ab59e5e" y="234.510458"/>
      </g>
     </g>
     <g id="text_28">
      <!-- −30 -->
      <g transform="translate(760.622585 238.309677)scale(0.1 -0.1)">
       <use xlink:href="#DejaVuSans-2212"/>
       <use x="83.789062" xlink:href="#DejaVuSans-33"/>
       <use x="147.412109" xlink:href="#DejaVuSans-30"/>
      </g>
     </g>
    </g>
    <g id="ytick_11">
     <g id="line2d_27">
      <g>
       <use style="stroke:#000000;stroke-width:0.8;" x="788.727273" xlink:href="#m9f9ab59e5e" y="188.884107"/>
      </g>
     </g>
     <g id="text_29">
      <!-- −20 -->
      <g transform="translate(760.622585 192.683326)scale(0.1 -0.1)">
       <use xlink:href="#DejaVuSans-2212"/>
       <use x="83.789062" xlink:href="#DejaVuSans-32"/>
       <use x="147.412109" xlink:href="#DejaVuSans-30"/>
      </g>
     </g>
    </g>
    <g id="ytick_12">
     <g id="line2d_28">
      <g>
       <use style="stroke:#000000;stroke-width:0.8;" x="788.727273" xlink:href="#m9f9ab59e5e" y="143.257756"/>
      </g>
     </g>
     <g id="text_30">
      <!-- −10 -->
      <g transform="translate(760.622585 147.056975)scale(0.1 -0.1)">
       <use xlink:href="#DejaVuSans-2212"/>
       <use x="83.789062" xlink:href="#DejaVuSans-31"/>
       <use x="147.412109" xlink:href="#DejaVuSans-30"/>
      </g>
     </g>
    </g>
    <g id="ytick_13">
     <g id="line2d_29">
      <g>
       <use style="stroke:#000000;stroke-width:0.8;" x="788.727273" xlink:href="#m9f9ab59e5e" y="97.631405"/>
      </g>
     </g>
     <g id="text_31">
      <!-- 0 -->
      <g transform="translate(775.364773 101.430624)scale(0.1 -0.1)">
       <use xlink:href="#DejaVuSans-30"/>
      </g>
     </g>
    </g>
    <g id="text_32">
     <!-- Spectrum[db] -->
     <g transform="translate(754.542898 244.424361)rotate(-90)scale(0.1 -0.1)">
      <use xlink:href="#DejaVuSans-53"/>
      <use x="63.476562" xlink:href="#DejaVuSans-70"/>
      <use x="126.953125" xlink:href="#DejaVuSans-65"/>
      <use x="188.476562" xlink:href="#DejaVuSans-63"/>
      <use x="243.457031" xlink:href="#DejaVuSans-74"/>
      <use x="282.666016" xlink:href="#DejaVuSans-72"/>
      <use x="323.779297" xlink:href="#DejaVuSans-75"/>
      <use x="387.158203" xlink:href="#DejaVuSans-6d"/>
      <use x="484.570312" xlink:href="#DejaVuSans-5b"/>
      <use x="523.583984" xlink:href="#DejaVuSans-64"/>
      <use x="587.060547" xlink:href="#DejaVuSans-62"/>
      <use x="650.537109" xlink:href="#DejaVuSans-5d"/>
     </g>
    </g>
   </g>
   <g id="line2d_30">
    <path clip-path="url(#p52a01e766d)" d="M 811.785124 301.480608 
L 818.207924 301.590661 
L 824.630724 301.918186 
L 831.053523 302.455395 
L 837.476323 303.189675 
L 845.183683 304.306846 
L 852.891043 305.647137 
L 861.882962 307.436624 
L 873.444002 309.981005 
L 904.273441 316.906889 
L 913.265361 318.641219 
L 920.97272 319.921913 
L 928.68008 320.965795 
L 935.10288 321.623295 
L 941.52568 322.060808 
L 947.948479 322.25284 
L 953.086719 322.212185 
L 958.224959 321.983844 
L 963.363199 321.553309 
L 968.501439 320.905215 
L 973.639679 320.023058 
L 978.777918 318.888851 
L 983.916158 317.482684 
L 989.054398 315.782157 
L 992.908078 314.298307 
L 996.761758 312.622209 
L 1000.615438 310.739879 
L 1004.469118 308.635284 
L 1008.322797 306.289808 
L 1012.176477 303.681558 
L 1016.030157 300.784419 
L 1019.883837 297.56675 
L 1023.737517 293.98954 
L 1027.591197 290.003735 
L 1030.160317 287.089116 
L 1032.729437 283.941906 
L 1035.298557 280.533626 
L 1037.867677 276.82901 
L 1040.436796 272.783588 
L 1043.005916 268.340114 
L 1045.575036 263.423037 
L 1048.144156 257.929626 
L 1050.713276 251.714945 
L 1053.282396 244.56473 
L 1054.566956 240.540783 
L 1055.851516 236.142193 
L 1057.136076 231.289004 
L 1058.420636 225.871345 
L 1059.705196 219.732306 
L 1060.989756 212.636509 
L 1062.274316 204.207049 
L 1063.558876 193.782857 
L 1064.843436 180.034118 
L 1066.127996 159.579183 
L 1067.412556 117.786936 
L 1068.697115 113.153184 
L 1069.981675 156.326234 
L 1071.266235 176.116474 
L 1072.550795 188.879581 
L 1073.835355 198.208164 
L 1075.119915 205.489836 
L 1076.404475 211.407564 
L 1077.689035 216.348102 
L 1078.973595 220.551695 
L 1080.258155 224.177741 
L 1081.542715 227.337341 
L 1082.827275 230.110957 
L 1084.111835 232.558659 
L 1085.396395 234.726414 
L 1086.680955 236.650118 
L 1087.965515 238.358271 
L 1089.250075 239.873821 
L 1091.819195 242.398518 
L 1094.388315 244.337648 
L 1096.957435 245.769442 
L 1099.526554 246.748276 
L 1102.095674 247.311368 
L 1104.664794 247.482798 
L 1107.233914 247.275858 
L 1109.803034 246.69426 
L 1112.372154 245.732438 
L 1114.941274 244.375019 
L 1117.510394 242.595335 
L 1120.079514 240.352693 
L 1122.648634 237.587766 
L 1125.217754 234.214913 
L 1126.502314 232.263501 
L 1127.786874 230.109039 
L 1129.071434 227.725895 
L 1130.355993 225.082001 
L 1131.640553 222.136619 
L 1132.925113 218.837055 
L 1134.209673 215.113619 
L 1135.494233 210.871616 
L 1136.778793 205.977979 
L 1138.063353 200.237593 
L 1139.347913 193.348084 
L 1140.632473 184.804532 
L 1141.917033 173.669675 
L 1143.201593 157.901913 
L 1144.486153 131.814037 
L 1145.770713 97.631405 
L 1147.055273 137.924596 
L 1148.339833 162.218967 
L 1149.624393 177.623711 
L 1150.908953 188.865647 
L 1152.193513 197.719464 
L 1153.478073 205.026104 
L 1154.762633 211.248178 
L 1156.047193 216.666938 
L 1157.331753 221.466035 
L 1158.616313 225.771983 
L 1161.185432 233.24447 
L 1163.754552 239.572247 
L 1166.323672 245.049128 
L 1168.892792 249.866047 
L 1171.461912 254.15427 
L 1174.031032 258.00806 
L 1176.600152 261.497497 
L 1179.169272 264.676178 
L 1181.738392 267.586078 
L 1184.307512 270.260732 
L 1188.161192 273.889909 
L 1192.014871 277.122975 
L 1195.868551 280.016103 
L 1199.722231 282.613561 
L 1203.575911 284.950938 
L 1207.429591 287.057325 
L 1211.283271 288.956835 
L 1216.421511 291.202207 
L 1221.55975 293.155054 
L 1226.69799 294.847558 
L 1231.83623 296.306082 
L 1236.97447 297.552333 
L 1242.11271 298.604197 
L 1248.53551 299.667746 
L 1254.958309 300.472922 
L 1261.381109 301.036522 
L 1267.803909 301.370148 
L 1272.942149 301.476197 
L 1272.942149 301.476197 
" style="fill:none;stroke:#1f77b4;stroke-linecap:square;stroke-width:1.5;"/>
   </g>
   <g id="line2d_31">
    <g clip-path="url(#p52a01e766d)">
     <use style="fill:#ff7f0e;stroke:#ff7f0e;" x="1068.697115" xlink:href="#m2d7dfcd798" y="97.631405"/>
     <use style="fill:#ff7f0e;stroke:#ff7f0e;" x="1145.770713" xlink:href="#m2d7dfcd798" y="97.631405"/>
    </g>
   </g>
   <g id="patch_8">
    <path d="M 788.727273 333.490909 
L 788.727273 86.4 
" style="fill:none;stroke:#000000;stroke-linecap:square;stroke-linejoin:miter;stroke-width:0.8;"/>
   </g>
   <g id="patch_9">
    <path d="M 1296 333.490909 
L 1296 86.4 
" style="fill:none;stroke:#000000;stroke-linecap:square;stroke-linejoin:miter;stroke-width:0.8;"/>
   </g>
   <g id="patch_10">
    <path d="M 788.727273 333.490909 
L 1296 333.490909 
" style="fill:none;stroke:#000000;stroke-linecap:square;stroke-linejoin:miter;stroke-width:0.8;"/>
   </g>
   <g id="patch_11">
    <path d="M 788.727273 86.4 
L 1296 86.4 
" style="fill:none;stroke:#000000;stroke-linecap:square;stroke-linejoin:miter;stroke-width:0.8;"/>
   </g>
   <g id="text_33">
    <!-- Wide Angles / Correlated Frequencies 1/5 -->
    <g transform="translate(918.614574 80.4)scale(0.12 -0.12)">
     <defs>
      <path d="M 4122 4306 
L 4122 3641 
Q 3803 3938 3442 4084 
Q 3081 4231 2675 4231 
Q 1875 4231 1450 3742 
Q 1025 3253 1025 2328 
Q 1025 1406 1450 917 
Q 1875 428 2675 428 
Q 3081 428 3442 575 
Q 3803 722 4122 1019 
L 4122 359 
Q 3791 134 3420 21 
Q 3050 -91 2638 -91 
Q 1578 -91 968 557 
Q 359 1206 359 2328 
Q 359 3453 968 4101 
Q 1578 4750 2638 4750 
Q 3056 4750 3426 4639 
Q 3797 4528 4122 4306 
z
" id="DejaVuSans-43" transform="scale(0.015625)"/>
     </defs>
     <use xlink:href="#DejaVuSans-57"/>
     <use x="96.626953" xlink:href="#DejaVuSans-69"/>
     <use x="124.410156" xlink:href="#DejaVuSans-64"/>
     <use x="187.886719" xlink:href="#DejaVuSans-65"/>
     <use x="249.410156" xlink:href="#DejaVuSans-20"/>
     <use x="281.197266" xlink:href="#DejaVuSans-41"/>
     <use x="349.605469" xlink:href="#DejaVuSans-6e"/>
     <use x="412.984375" xlink:href="#DejaVuSans-67"/>
     <use x="476.460938" xlink:href="#DejaVuSans-6c"/>
     <use x="504.244141" xlink:href="#DejaVuSans-65"/>
     <use x="565.767578" xlink:href="#DejaVuSans-73"/>
     <use x="617.867188" xlink:href="#DejaVuSans-20"/>
     <use x="649.654297" xlink:href="#DejaVuSans-2f"/>
     <use x="683.345703" xlink:href="#DejaVuSans-20"/>
     <use x="715.132812" xlink:href="#DejaVuSans-43"/>
     <use x="784.957031" xlink:href="#DejaVuSans-6f"/>
     <use x="846.138672" xlink:href="#DejaVuSans-72"/>
     <use x="885.501953" xlink:href="#DejaVuSans-72"/>
     <use x="924.365234" xlink:href="#DejaVuSans-65"/>
     <use x="985.888672" xlink:href="#DejaVuSans-6c"/>
     <use x="1013.671875" xlink:href="#DejaVuSans-61"/>
     <use x="1074.951172" xlink:href="#DejaVuSans-74"/>
     <use x="1114.160156" xlink:href="#DejaVuSans-65"/>
     <use x="1175.683594" xlink:href="#DejaVuSans-64"/>
     <use x="1239.160156" xlink:href="#DejaVuSans-20"/>
     <use x="1270.947266" xlink:href="#DejaVuSans-46"/>
     <use x="1321.216797" xlink:href="#DejaVuSans-72"/>
     <use x="1360.080078" xlink:href="#DejaVuSans-65"/>
     <use x="1421.603516" xlink:href="#DejaVuSans-71"/>
     <use x="1485.080078" xlink:href="#DejaVuSans-75"/>
     <use x="1548.458984" xlink:href="#DejaVuSans-65"/>
     <use x="1609.982422" xlink:href="#DejaVuSans-6e"/>
     <use x="1673.361328" xlink:href="#DejaVuSans-63"/>
     <use x="1728.341797" xlink:href="#DejaVuSans-69"/>
     <use x="1756.125" xlink:href="#DejaVuSans-65"/>
     <use x="1817.648438" xlink:href="#DejaVuSans-73"/>
     <use x="1869.748047" xlink:href="#DejaVuSans-20"/>
     <use x="1901.535156" xlink:href="#DejaVuSans-31"/>
     <use x="1965.158203" xlink:href="#DejaVuSans-2f"/>
     <use x="1998.849609" xlink:href="#DejaVuSans-35"/>
    </g>
   </g>
  </g>
  <g id="axes_3">
   <g id="patch_12">
    <path d="M 180 630 
L 687.272727 630 
L 687.272727 382.909091 
L 180 382.909091 
z
" style="fill:#ffffff;"/>
   </g>
   <g id="matplotlib.axis_5">
    <g id="xtick_15">
     <g id="line2d_32">
      <g>
       <use style="stroke:#000000;stroke-width:0.8;" x="241.59465" xlink:href="#m9f1e660983" y="630"/>
      </g>
     </g>
     <g id="text_34">
      <!-- −75 -->
      <g transform="translate(231.042306 644.598437)scale(0.1 -0.1)">
       <use xlink:href="#DejaVuSans-2212"/>
       <use x="83.789062" xlink:href="#DejaVuSans-37"/>
       <use x="147.412109" xlink:href="#DejaVuSans-35"/>
      </g>
     </g>
    </g>
    <g id="xtick_16">
     <g id="line2d_33">
      <g>
       <use style="stroke:#000000;stroke-width:0.8;" x="305.822648" xlink:href="#m9f1e660983" y="630"/>
      </g>
     </g>
     <g id="text_35">
      <!-- −50 -->
      <g transform="translate(295.270304 644.598437)scale(0.1 -0.1)">
       <use xlink:href="#DejaVuSans-2212"/>
       <use x="83.789062" xlink:href="#DejaVuSans-35"/>
       <use x="147.412109" xlink:href="#DejaVuSans-30"/>
      </g>
     </g>
    </g>
    <g id="xtick_17">
     <g id="line2d_34">
      <g>
       <use style="stroke:#000000;stroke-width:0.8;" x="370.050646" xlink:href="#m9f1e660983" y="630"/>
      </g>
     </g>
     <g id="text_36">
      <!-- −25 -->
      <g transform="translate(359.498302 644.598437)scale(0.1 -0.1)">
       <use xlink:href="#DejaVuSans-2212"/>
       <use x="83.789062" xlink:href="#DejaVuSans-32"/>
       <use x="147.412109" xlink:href="#DejaVuSans-35"/>
      </g>
     </g>
    </g>
    <g id="xtick_18">
     <g id="line2d_35">
      <g>
       <use style="stroke:#000000;stroke-width:0.8;" x="434.278644" xlink:href="#m9f1e660983" y="630"/>
      </g>
     </g>
     <g id="text_37">
      <!-- 0 -->
      <g transform="translate(431.097394 644.598437)scale(0.1 -0.1)">
       <use xlink:href="#DejaVuSans-30"/>
      </g>
     </g>
    </g>
    <g id="xtick_19">
     <g id="line2d_36">
      <g>
       <use style="stroke:#000000;stroke-width:0.8;" x="498.506641" xlink:href="#m9f1e660983" y="630"/>
      </g>
     </g>
     <g id="text_38">
      <!-- 25 -->
      <g transform="translate(492.144141 644.598437)scale(0.1 -0.1)">
       <use xlink:href="#DejaVuSans-32"/>
       <use x="63.623047" xlink:href="#DejaVuSans-35"/>
      </g>
     </g>
    </g>
    <g id="xtick_20">
     <g id="line2d_37">
      <g>
       <use style="stroke:#000000;stroke-width:0.8;" x="562.734639" xlink:href="#m9f1e660983" y="630"/>
      </g>
     </g>
     <g id="text_39">
      <!-- 50 -->
      <g transform="translate(556.372139 644.598437)scale(0.1 -0.1)">
       <use xlink:href="#DejaVuSans-35"/>
       <use x="63.623047" xlink:href="#DejaVuSans-30"/>
      </g>
     </g>
    </g>
    <g id="xtick_21">
     <g id="line2d_38">
      <g>
       <use style="stroke:#000000;stroke-width:0.8;" x="626.962637" xlink:href="#m9f1e660983" y="630"/>
      </g>
     </g>
     <g id="text_40">
      <!-- 75 -->
      <g transform="translate(620.600137 644.598437)scale(0.1 -0.1)">
       <use xlink:href="#DejaVuSans-37"/>
       <use x="63.623047" xlink:href="#DejaVuSans-35"/>
      </g>
     </g>
    </g>
    <g id="text_41">
     <!-- Angles -->
     <g transform="translate(416.80277 658.276562)scale(0.1 -0.1)">
      <use xlink:href="#DejaVuSans-41"/>
      <use x="68.408203" xlink:href="#DejaVuSans-6e"/>
      <use x="131.787109" xlink:href="#DejaVuSans-67"/>
      <use x="195.263672" xlink:href="#DejaVuSans-6c"/>
      <use x="223.046875" xlink:href="#DejaVuSans-65"/>
      <use x="284.570312" xlink:href="#DejaVuSans-73"/>
     </g>
    </g>
   </g>
   <g id="matplotlib.axis_6">
    <g id="ytick_14">
     <g id="line2d_39">
      <g>
       <use style="stroke:#000000;stroke-width:0.8;" x="180" xlink:href="#m9f9ab59e5e" y="596.972564"/>
      </g>
     </g>
     <g id="text_42">
      <!-- −60 -->
      <g transform="translate(151.895312 600.771783)scale(0.1 -0.1)">
       <use xlink:href="#DejaVuSans-2212"/>
       <use x="83.789062" xlink:href="#DejaVuSans-36"/>
       <use x="147.412109" xlink:href="#DejaVuSans-30"/>
      </g>
     </g>
    </g>
    <g id="ytick_15">
     <g id="line2d_40">
      <g>
       <use style="stroke:#000000;stroke-width:0.8;" x="180" xlink:href="#m9f9ab59e5e" y="563.167219"/>
      </g>
     </g>
     <g id="text_43">
      <!-- −50 -->
      <g transform="translate(151.895312 566.966438)scale(0.1 -0.1)">
       <use xlink:href="#DejaVuSans-2212"/>
       <use x="83.789062" xlink:href="#DejaVuSans-35"/>
       <use x="147.412109" xlink:href="#DejaVuSans-30"/>
      </g>
     </g>
    </g>
    <g id="ytick_16">
     <g id="line2d_41">
      <g>
       <use style="stroke:#000000;stroke-width:0.8;" x="180" xlink:href="#m9f9ab59e5e" y="529.361875"/>
      </g>
     </g>
     <g id="text_44">
      <!-- −40 -->
      <g transform="translate(151.895312 533.161093)scale(0.1 -0.1)">
       <use xlink:href="#DejaVuSans-2212"/>
       <use x="83.789062" xlink:href="#DejaVuSans-34"/>
       <use x="147.412109" xlink:href="#DejaVuSans-30"/>
      </g>
     </g>
    </g>
    <g id="ytick_17">
     <g id="line2d_42">
      <g>
       <use style="stroke:#000000;stroke-width:0.8;" x="180" xlink:href="#m9f9ab59e5e" y="495.55653"/>
      </g>
     </g>
     <g id="text_45">
      <!-- −30 -->
      <g transform="translate(151.895312 499.355749)scale(0.1 -0.1)">
       <use xlink:href="#DejaVuSans-2212"/>
       <use x="83.789062" xlink:href="#DejaVuSans-33"/>
       <use x="147.412109" xlink:href="#DejaVuSans-30"/>
      </g>
     </g>
    </g>
    <g id="ytick_18">
     <g id="line2d_43">
      <g>
       <use style="stroke:#000000;stroke-width:0.8;" x="180" xlink:href="#m9f9ab59e5e" y="461.751185"/>
      </g>
     </g>
     <g id="text_46">
      <!-- −20 -->
      <g transform="translate(151.895312 465.550404)scale(0.1 -0.1)">
       <use xlink:href="#DejaVuSans-2212"/>
       <use x="83.789062" xlink:href="#DejaVuSans-32"/>
       <use x="147.412109" xlink:href="#DejaVuSans-30"/>
      </g>
     </g>
    </g>
    <g id="ytick_19">
     <g id="line2d_44">
      <g>
       <use style="stroke:#000000;stroke-width:0.8;" x="180" xlink:href="#m9f9ab59e5e" y="427.945841"/>
      </g>
     </g>
     <g id="text_47">
      <!-- −10 -->
      <g transform="translate(151.895312 431.745059)scale(0.1 -0.1)">
       <use xlink:href="#DejaVuSans-2212"/>
       <use x="83.789062" xlink:href="#DejaVuSans-31"/>
       <use x="147.412109" xlink:href="#DejaVuSans-30"/>
      </g>
     </g>
    </g>
    <g id="ytick_20">
     <g id="line2d_45">
      <g>
       <use style="stroke:#000000;stroke-width:0.8;" x="180" xlink:href="#m9f9ab59e5e" y="394.140496"/>
      </g>
     </g>
     <g id="text_48">
      <!-- 0 -->
      <g transform="translate(166.6375 397.939715)scale(0.1 -0.1)">
       <use xlink:href="#DejaVuSans-30"/>
      </g>
     </g>
    </g>
    <g id="text_49">
     <!-- Spectrum[db] -->
     <g transform="translate(145.815625 540.933452)rotate(-90)scale(0.1 -0.1)">
      <use xlink:href="#DejaVuSans-53"/>
      <use x="63.476562" xlink:href="#DejaVuSans-70"/>
      <use x="126.953125" xlink:href="#DejaVuSans-65"/>
      <use x="188.476562" xlink:href="#DejaVuSans-63"/>
      <use x="243.457031" xlink:href="#DejaVuSans-74"/>
      <use x="282.666016" xlink:href="#DejaVuSans-72"/>
      <use x="323.779297" xlink:href="#DejaVuSans-75"/>
      <use x="387.158203" xlink:href="#DejaVuSans-6d"/>
      <use x="484.570312" xlink:href="#DejaVuSans-5b"/>
      <use x="523.583984" xlink:href="#DejaVuSans-64"/>
      <use x="587.060547" xlink:href="#DejaVuSans-62"/>
      <use x="650.537109" xlink:href="#DejaVuSans-5d"/>
     </g>
    </g>
   </g>
   <g id="line2d_46">
    <path clip-path="url(#p17d42bea32)" d="M 203.057851 615.15379 
L 214.618891 615.256222 
L 227.46449 615.597552 
L 241.59465 616.200137 
L 266.001289 617.520259 
L 282.700569 618.328301 
L 294.261608 618.681527 
L 304.538088 618.764511 
L 313.530008 618.600304 
L 321.237367 618.243784 
L 328.944727 617.653119 
L 335.367527 616.956801 
L 341.790327 616.051985 
L 348.213126 614.915548 
L 354.635926 613.522387 
L 359.774166 612.204516 
L 364.912406 610.689 
L 370.050646 608.958439 
L 375.188886 606.993285 
L 380.327125 604.771279 
L 385.465365 602.266709 
L 390.603605 599.449419 
L 394.457285 597.109867 
L 398.310965 594.556453 
L 402.164645 591.768273 
L 406.018325 588.720619 
L 409.872004 585.383903 
L 413.725684 581.722185 
L 417.579364 577.691096 
L 421.433044 573.234837 
L 424.002164 569.99322 
L 426.571284 566.504726 
L 429.140404 562.737089 
L 431.709524 558.650421 
L 434.278644 554.194511 
L 436.847764 549.304794 
L 439.416883 543.896071 
L 441.986003 537.852265 
L 444.555123 531.008668 
L 447.124243 523.118761 
L 448.408803 518.666555 
L 449.693363 513.785519 
L 450.977923 508.376396 
L 452.262483 502.297396 
L 453.547043 495.334664 
L 454.831603 487.141132 
L 456.116163 477.091375 
L 457.400723 463.859211 
L 458.685283 443.668247 
L 459.969843 394.140496 
L 461.254403 427.757328 
L 462.538963 447.662661 
L 463.823523 457.00123 
L 465.108083 461.992919 
L 466.392643 464.351594 
L 467.677203 464.693789 
L 468.961762 463.183626 
L 470.246322 459.720439 
L 471.530882 454.138244 
L 472.815442 447.419357 
L 474.100002 446.185751 
L 475.384562 455.77135 
L 476.669122 467.930139 
L 477.953682 478.531085 
L 479.238242 487.417914 
L 480.522802 494.977368 
L 481.807362 501.536544 
L 483.091922 507.326808 
L 484.376482 512.510244 
L 486.945602 521.490145 
L 489.514722 529.091695 
L 492.083842 535.678473 
L 494.652962 541.483225 
L 497.222082 546.664327 
L 499.791201 551.334735 
L 502.360321 555.578053 
L 504.929441 559.458033 
L 507.498561 563.024494 
L 510.067681 566.31718 
L 513.921361 570.811853 
L 517.775041 574.84807 
L 521.628721 578.492145 
L 525.482401 581.796292 
L 529.33608 584.802473 
L 533.18976 587.545005 
L 537.04344 590.05239 
L 540.89712 592.348624 
L 546.03536 595.116732 
L 551.1736 597.586368 
L 556.31184 599.791605 
L 561.450079 601.76127 
L 566.588319 603.52008 
L 573.011119 605.454472 
L 579.433919 607.128861 
L 585.856719 608.574274 
L 592.279518 609.81761 
L 599.986878 611.075731 
L 607.694238 612.111684 
L 616.686158 613.079341 
L 625.678077 613.825388 
L 635.954557 614.448132 
L 647.515597 614.899624 
L 659.076636 615.121847 
L 664.214876 615.152515 
L 664.214876 615.152515 
" style="fill:none;stroke:#1f77b4;stroke-linecap:square;stroke-width:1.5;"/>
   </g>
   <g id="line2d_47">
    <g clip-path="url(#p17d42bea32)">
     <use style="fill:#ff7f0e;stroke:#ff7f0e;" x="459.969843" xlink:href="#m2d7dfcd798" y="394.140496"/>
     <use style="fill:#ff7f0e;stroke:#ff7f0e;" x="472.815442" xlink:href="#m2d7dfcd798" y="394.140496"/>
    </g>
   </g>
   <g id="patch_13">
    <path d="M 180 630 
L 180 382.909091 
" style="fill:none;stroke:#000000;stroke-linecap:square;stroke-linejoin:miter;stroke-width:0.8;"/>
   </g>
   <g id="patch_14">
    <path d="M 687.272727 630 
L 687.272727 382.909091 
" style="fill:none;stroke:#000000;stroke-linecap:square;stroke-linejoin:miter;stroke-width:0.8;"/>
   </g>
   <g id="patch_15">
    <path d="M 180 630 
L 687.272727 630 
" style="fill:none;stroke:#000000;stroke-linecap:square;stroke-linejoin:miter;stroke-width:0.8;"/>
   </g>
   <g id="patch_16">
    <path d="M 180 382.909091 
L 687.272727 382.909091 
" style="fill:none;stroke:#000000;stroke-linecap:square;stroke-linejoin:miter;stroke-width:0.8;"/>
   </g>
   <g id="text_50">
    <!-- Close Angles / Uncorrelated Frequencies -->
    <g transform="translate(312.767301 376.909091)scale(0.12 -0.12)">
     <use xlink:href="#DejaVuSans-43"/>
     <use x="69.824219" xlink:href="#DejaVuSans-6c"/>
     <use x="97.607422" xlink:href="#DejaVuSans-6f"/>
     <use x="158.789062" xlink:href="#DejaVuSans-73"/>
     <use x="210.888672" xlink:href="#DejaVuSans-65"/>
     <use x="272.412109" xlink:href="#DejaVuSans-20"/>
     <use x="304.199219" xlink:href="#DejaVuSans-41"/>
     <use x="372.607422" xlink:href="#DejaVuSans-6e"/>
     <use x="435.986328" xlink:href="#DejaVuSans-67"/>
     <use x="499.462891" xlink:href="#DejaVuSans-6c"/>
     <use x="527.246094" xlink:href="#DejaVuSans-65"/>
     <use x="588.769531" xlink:href="#DejaVuSans-73"/>
     <use x="640.869141" xlink:href="#DejaVuSans-20"/>
     <use x="672.65625" xlink:href="#DejaVuSans-2f"/>
     <use x="706.347656" xlink:href="#DejaVuSans-20"/>
     <use x="738.134766" xlink:href="#DejaVuSans-55"/>
     <use x="811.328125" xlink:href="#DejaVuSans-6e"/>
     <use x="874.707031" xlink:href="#DejaVuSans-63"/>
     <use x="929.6875" xlink:href="#DejaVuSans-6f"/>
     <use x="990.869141" xlink:href="#DejaVuSans-72"/>
     <use x="1030.232422" xlink:href="#DejaVuSans-72"/>
     <use x="1069.095703" xlink:href="#DejaVuSans-65"/>
     <use x="1130.619141" xlink:href="#DejaVuSans-6c"/>
     <use x="1158.402344" xlink:href="#DejaVuSans-61"/>
     <use x="1219.681641" xlink:href="#DejaVuSans-74"/>
     <use x="1258.890625" xlink:href="#DejaVuSans-65"/>
     <use x="1320.414062" xlink:href="#DejaVuSans-64"/>
     <use x="1383.890625" xlink:href="#DejaVuSans-20"/>
     <use x="1415.677734" xlink:href="#DejaVuSans-46"/>
     <use x="1465.947266" xlink:href="#DejaVuSans-72"/>
     <use x="1504.810547" xlink:href="#DejaVuSans-65"/>
     <use x="1566.333984" xlink:href="#DejaVuSans-71"/>
     <use x="1629.810547" xlink:href="#DejaVuSans-75"/>
     <use x="1693.189453" xlink:href="#DejaVuSans-65"/>
     <use x="1754.712891" xlink:href="#DejaVuSans-6e"/>
     <use x="1818.091797" xlink:href="#DejaVuSans-63"/>
     <use x="1873.072266" xlink:href="#DejaVuSans-69"/>
     <use x="1900.855469" xlink:href="#DejaVuSans-65"/>
     <use x="1962.378906" xlink:href="#DejaVuSans-73"/>
    </g>
   </g>
  </g>
  <g id="axes_4">
   <g id="patch_17">
    <path d="M 788.727273 630 
L 1296 630 
L 1296 382.909091 
L 788.727273 382.909091 
z
" style="fill:#ffffff;"/>
   </g>
   <g id="matplotlib.axis_7">
    <g id="xtick_22">
     <g id="line2d_48">
      <g>
       <use style="stroke:#000000;stroke-width:0.8;" x="850.321923" xlink:href="#m9f1e660983" y="630"/>
      </g>
     </g>
     <g id="text_51">
      <!-- −75 -->
      <g transform="translate(839.769579 644.598437)scale(0.1 -0.1)">
       <use xlink:href="#DejaVuSans-2212"/>
       <use x="83.789062" xlink:href="#DejaVuSans-37"/>
       <use x="147.412109" xlink:href="#DejaVuSans-35"/>
      </g>
     </g>
    </g>
    <g id="xtick_23">
     <g id="line2d_49">
      <g>
       <use style="stroke:#000000;stroke-width:0.8;" x="914.549921" xlink:href="#m9f1e660983" y="630"/>
      </g>
     </g>
     <g id="text_52">
      <!-- −50 -->
      <g transform="translate(903.997577 644.598437)scale(0.1 -0.1)">
       <use xlink:href="#DejaVuSans-2212"/>
       <use x="83.789062" xlink:href="#DejaVuSans-35"/>
       <use x="147.412109" xlink:href="#DejaVuSans-30"/>
      </g>
     </g>
    </g>
    <g id="xtick_24">
     <g id="line2d_50">
      <g>
       <use style="stroke:#000000;stroke-width:0.8;" x="978.777918" xlink:href="#m9f1e660983" y="630"/>
      </g>
     </g>
     <g id="text_53">
      <!-- −25 -->
      <g transform="translate(968.225575 644.598437)scale(0.1 -0.1)">
       <use xlink:href="#DejaVuSans-2212"/>
       <use x="83.789062" xlink:href="#DejaVuSans-32"/>
       <use x="147.412109" xlink:href="#DejaVuSans-35"/>
      </g>
     </g>
    </g>
    <g id="xtick_25">
     <g id="line2d_51">
      <g>
       <use style="stroke:#000000;stroke-width:0.8;" x="1043.005916" xlink:href="#m9f1e660983" y="630"/>
      </g>
     </g>
     <g id="text_54">
      <!-- 0 -->
      <g transform="translate(1039.824666 644.598437)scale(0.1 -0.1)">
       <use xlink:href="#DejaVuSans-30"/>
      </g>
     </g>
    </g>
    <g id="xtick_26">
     <g id="line2d_52">
      <g>
       <use style="stroke:#000000;stroke-width:0.8;" x="1107.233914" xlink:href="#m9f1e660983" y="630"/>
      </g>
     </g>
     <g id="text_55">
      <!-- 25 -->
      <g transform="translate(1100.871414 644.598437)scale(0.1 -0.1)">
       <use xlink:href="#DejaVuSans-32"/>
       <use x="63.623047" xlink:href="#DejaVuSans-35"/>
      </g>
     </g>
    </g>
    <g id="xtick_27">
     <g id="line2d_53">
      <g>
       <use style="stroke:#000000;stroke-width:0.8;" x="1171.461912" xlink:href="#m9f1e660983" y="630"/>
      </g>
     </g>
     <g id="text_56">
      <!-- 50 -->
      <g transform="translate(1165.099412 644.598437)scale(0.1 -0.1)">
       <use xlink:href="#DejaVuSans-35"/>
       <use x="63.623047" xlink:href="#DejaVuSans-30"/>
      </g>
     </g>
    </g>
    <g id="xtick_28">
     <g id="line2d_54">
      <g>
       <use style="stroke:#000000;stroke-width:0.8;" x="1235.68991" xlink:href="#m9f1e660983" y="630"/>
      </g>
     </g>
     <g id="text_57">
      <!-- 75 -->
      <g transform="translate(1229.32741 644.598437)scale(0.1 -0.1)">
       <use xlink:href="#DejaVuSans-37"/>
       <use x="63.623047" xlink:href="#DejaVuSans-35"/>
      </g>
     </g>
    </g>
    <g id="text_58">
     <!-- Angles -->
     <g transform="translate(1025.530043 658.276562)scale(0.1 -0.1)">
      <use xlink:href="#DejaVuSans-41"/>
      <use x="68.408203" xlink:href="#DejaVuSans-6e"/>
      <use x="131.787109" xlink:href="#DejaVuSans-67"/>
      <use x="195.263672" xlink:href="#DejaVuSans-6c"/>
      <use x="223.046875" xlink:href="#DejaVuSans-65"/>
      <use x="284.570312" xlink:href="#DejaVuSans-73"/>
     </g>
    </g>
   </g>
   <g id="matplotlib.axis_8">
    <g id="ytick_21">
     <g id="line2d_55">
      <g>
       <use style="stroke:#000000;stroke-width:0.8;" x="788.727273" xlink:href="#m9f9ab59e5e" y="605.418746"/>
      </g>
     </g>
     <g id="text_59">
      <!-- −50 -->
      <g transform="translate(760.622585 609.217964)scale(0.1 -0.1)">
       <use xlink:href="#DejaVuSans-2212"/>
       <use x="83.789062" xlink:href="#DejaVuSans-35"/>
       <use x="147.412109" xlink:href="#DejaVuSans-30"/>
      </g>
     </g>
    </g>
    <g id="ytick_22">
     <g id="line2d_56">
      <g>
       <use style="stroke:#000000;stroke-width:0.8;" x="788.727273" xlink:href="#m9f9ab59e5e" y="563.163096"/>
      </g>
     </g>
     <g id="text_60">
      <!-- −40 -->
      <g transform="translate(760.622585 566.962314)scale(0.1 -0.1)">
       <use xlink:href="#DejaVuSans-2212"/>
       <use x="83.789062" xlink:href="#DejaVuSans-34"/>
       <use x="147.412109" xlink:href="#DejaVuSans-30"/>
      </g>
     </g>
    </g>
    <g id="ytick_23">
     <g id="line2d_57">
      <g>
       <use style="stroke:#000000;stroke-width:0.8;" x="788.727273" xlink:href="#m9f9ab59e5e" y="520.907446"/>
      </g>
     </g>
     <g id="text_61">
      <!-- −30 -->
      <g transform="translate(760.622585 524.706664)scale(0.1 -0.1)">
       <use xlink:href="#DejaVuSans-2212"/>
       <use x="83.789062" xlink:href="#DejaVuSans-33"/>
       <use x="147.412109" xlink:href="#DejaVuSans-30"/>
      </g>
     </g>
    </g>
    <g id="ytick_24">
     <g id="line2d_58">
      <g>
       <use style="stroke:#000000;stroke-width:0.8;" x="788.727273" xlink:href="#m9f9ab59e5e" y="478.651796"/>
      </g>
     </g>
     <g id="text_62">
      <!-- −20 -->
      <g transform="translate(760.622585 482.451015)scale(0.1 -0.1)">
       <use xlink:href="#DejaVuSans-2212"/>
       <use x="83.789062" xlink:href="#DejaVuSans-32"/>
       <use x="147.412109" xlink:href="#DejaVuSans-30"/>
      </g>
     </g>
    </g>
    <g id="ytick_25">
     <g id="line2d_59">
      <g>
       <use style="stroke:#000000;stroke-width:0.8;" x="788.727273" xlink:href="#m9f9ab59e5e" y="436.396146"/>
      </g>
     </g>
     <g id="text_63">
      <!-- −10 -->
      <g transform="translate(760.622585 440.195365)scale(0.1 -0.1)">
       <use xlink:href="#DejaVuSans-2212"/>
       <use x="83.789062" xlink:href="#DejaVuSans-31"/>
       <use x="147.412109" xlink:href="#DejaVuSans-30"/>
      </g>
     </g>
    </g>
    <g id="ytick_26">
     <g id="line2d_60">
      <g>
       <use style="stroke:#000000;stroke-width:0.8;" x="788.727273" xlink:href="#m9f9ab59e5e" y="394.140496"/>
      </g>
     </g>
     <g id="text_64">
      <!-- 0 -->
      <g transform="translate(775.364773 397.939715)scale(0.1 -0.1)">
       <use xlink:href="#DejaVuSans-30"/>
      </g>
     </g>
    </g>
    <g id="text_65">
     <!-- Spectrum[db] -->
     <g transform="translate(754.542898 540.933452)rotate(-90)scale(0.1 -0.1)">
      <use xlink:href="#DejaVuSans-53"/>
      <use x="63.476562" xlink:href="#DejaVuSans-70"/>
      <use x="126.953125" xlink:href="#DejaVuSans-65"/>
      <use x="188.476562" xlink:href="#DejaVuSans-63"/>
      <use x="243.457031" xlink:href="#DejaVuSans-74"/>
      <use x="282.666016" xlink:href="#DejaVuSans-72"/>
      <use x="323.779297" xlink:href="#DejaVuSans-75"/>
      <use x="387.158203" xlink:href="#DejaVuSans-6d"/>
      <use x="484.570312" xlink:href="#DejaVuSans-5b"/>
      <use x="523.583984" xlink:href="#DejaVuSans-64"/>
      <use x="587.060547" xlink:href="#DejaVuSans-62"/>
      <use x="650.537109" xlink:href="#DejaVuSans-5d"/>
     </g>
    </g>
   </g>
   <g id="line2d_61">
    <path clip-path="url(#pb918e22aa1)" d="M 811.785124 613.972821 
L 822.061604 614.077418 
L 833.622643 614.434772 
L 845.183683 615.012297 
L 860.598402 616.023981 
L 891.427841 618.12098 
L 901.704321 618.57404 
L 910.696241 618.760188 
L 918.4036 618.716533 
L 926.11096 618.444471 
L 932.53376 618.014262 
L 938.95656 617.373165 
L 945.37936 616.49568 
L 951.802159 615.354816 
L 956.940399 614.233137 
L 962.078639 612.908511 
L 967.216879 611.363759 
L 972.355119 609.580146 
L 977.493359 607.537002 
L 982.631598 605.21124 
L 987.769838 602.576731 
L 991.623518 600.380371 
L 995.477198 597.979166 
L 999.330878 595.356823 
L 1003.184558 592.494747 
L 1007.038238 589.371512 
L 1010.891917 585.962161 
L 1014.745597 582.237297 
L 1018.599277 578.161861 
L 1022.452957 573.693457 
L 1026.306637 568.780023 
L 1030.160317 563.35649 
L 1032.729437 559.417366 
L 1035.298557 555.184695 
L 1037.867677 550.621654 
L 1040.436796 545.68309 
L 1043.005916 540.31273 
L 1045.575036 534.43908 
L 1048.144156 527.969204 
L 1050.713276 520.778892 
L 1053.282396 512.696302 
L 1055.851516 503.473035 
L 1058.420636 492.728745 
L 1059.705196 486.604901 
L 1060.989756 479.833751 
L 1062.274316 472.252318 
L 1063.558876 463.624977 
L 1064.843436 453.596096 
L 1066.127996 441.608753 
L 1067.412556 426.818116 
L 1068.697115 408.675011 
L 1069.981675 394.140496 
L 1071.266235 399.877968 
L 1072.550795 411.182881 
L 1073.835355 419.025192 
L 1075.119915 423.565744 
L 1076.404475 425.48743 
L 1077.689035 425.119992 
L 1078.973595 422.482028 
L 1080.258155 417.371229 
L 1082.827275 402.601777 
L 1084.111835 406.006427 
L 1087.965515 446.995585 
L 1089.250075 457.469121 
L 1090.534635 466.452235 
L 1091.819195 474.301884 
L 1093.103755 481.270241 
L 1094.388315 487.535899 
L 1096.957435 498.443737 
L 1099.526554 507.721312 
L 1102.095674 515.787082 
L 1104.664794 522.91245 
L 1107.233914 529.283917 
L 1109.803034 535.035512 
L 1112.372154 540.26703 
L 1114.941274 545.054942 
L 1117.510394 549.459245 
L 1120.079514 553.527962 
L 1122.648634 557.300183 
L 1126.502314 562.471745 
L 1130.355993 567.135522 
L 1134.209673 571.360389 
L 1138.063353 575.201462 
L 1141.917033 578.703654 
L 1145.770713 581.904142 
L 1149.624393 584.834135 
L 1153.478073 587.520153 
L 1157.331753 589.984988 
L 1162.469992 592.961195 
L 1167.608232 595.619366 
L 1172.746472 597.993738 
L 1177.884712 600.113773 
L 1183.022952 602.0051 
L 1188.161192 603.690225 
L 1194.583991 605.536789 
L 1201.006791 607.12633 
L 1207.429591 608.488656 
L 1213.852391 609.649859 
L 1221.55975 610.809818 
L 1229.26711 611.74706 
L 1238.25903 612.597133 
L 1247.25095 613.220272 
L 1257.527429 613.69088 
L 1267.803909 613.931618 
L 1272.942149 613.971176 
L 1272.942149 613.971176 
" style="fill:none;stroke:#1f77b4;stroke-linecap:square;stroke-width:1.5;"/>
   </g>
   <g id="line2d_62">
    <g clip-path="url(#pb918e22aa1)">
     <use style="fill:#ff7f0e;stroke:#ff7f0e;" x="1068.697115" xlink:href="#m2d7dfcd798" y="394.140496"/>
     <use style="fill:#ff7f0e;stroke:#ff7f0e;" x="1081.542715" xlink:href="#m2d7dfcd798" y="394.140496"/>
    </g>
   </g>
   <g id="patch_18">
    <path d="M 788.727273 630 
L 788.727273 382.909091 
" style="fill:none;stroke:#000000;stroke-linecap:square;stroke-linejoin:miter;stroke-width:0.8;"/>
   </g>
   <g id="patch_19">
    <path d="M 1296 630 
L 1296 382.909091 
" style="fill:none;stroke:#000000;stroke-linecap:square;stroke-linejoin:miter;stroke-width:0.8;"/>
   </g>
   <g id="patch_20">
    <path d="M 788.727273 630 
L 1296 630 
" style="fill:none;stroke:#000000;stroke-linecap:square;stroke-linejoin:miter;stroke-width:0.8;"/>
   </g>
   <g id="patch_21">
    <path d="M 788.727273 382.909091 
L 1296 382.909091 
" style="fill:none;stroke:#000000;stroke-linecap:square;stroke-linejoin:miter;stroke-width:0.8;"/>
   </g>
   <g id="text_66">
    <!-- Close Angles / Correlated Frequencies 1/5 -->
    <g transform="translate(917.234574 376.909091)scale(0.12 -0.12)">
     <use xlink:href="#DejaVuSans-43"/>
     <use x="69.824219" xlink:href="#DejaVuSans-6c"/>
     <use x="97.607422" xlink:href="#DejaVuSans-6f"/>
     <use x="158.789062" xlink:href="#DejaVuSans-73"/>
     <use x="210.888672" xlink:href="#DejaVuSans-65"/>
     <use x="272.412109" xlink:href="#DejaVuSans-20"/>
     <use x="304.199219" xlink:href="#DejaVuSans-41"/>
     <use x="372.607422" xlink:href="#DejaVuSans-6e"/>
     <use x="435.986328" xlink:href="#DejaVuSans-67"/>
     <use x="499.462891" xlink:href="#DejaVuSans-6c"/>
     <use x="527.246094" xlink:href="#DejaVuSans-65"/>
     <use x="588.769531" xlink:href="#DejaVuSans-73"/>
     <use x="640.869141" xlink:href="#DejaVuSans-20"/>
     <use x="672.65625" xlink:href="#DejaVuSans-2f"/>
     <use x="706.347656" xlink:href="#DejaVuSans-20"/>
     <use x="738.134766" xlink:href="#DejaVuSans-43"/>
     <use x="807.958984" xlink:href="#DejaVuSans-6f"/>
     <use x="869.140625" xlink:href="#DejaVuSans-72"/>
     <use x="908.503906" xlink:href="#DejaVuSans-72"/>
     <use x="947.367188" xlink:href="#DejaVuSans-65"/>
     <use x="1008.890625" xlink:href="#DejaVuSans-6c"/>
     <use x="1036.673828" xlink:href="#DejaVuSans-61"/>
     <use x="1097.953125" xlink:href="#DejaVuSans-74"/>
     <use x="1137.162109" xlink:href="#DejaVuSans-65"/>
     <use x="1198.685547" xlink:href="#DejaVuSans-64"/>
     <use x="1262.162109" xlink:href="#DejaVuSans-20"/>
     <use x="1293.949219" xlink:href="#DejaVuSans-46"/>
     <use x="1344.21875" xlink:href="#DejaVuSans-72"/>
     <use x="1383.082031" xlink:href="#DejaVuSans-65"/>
     <use x="1444.605469" xlink:href="#DejaVuSans-71"/>
     <use x="1508.082031" xlink:href="#DejaVuSans-75"/>
     <use x="1571.460938" xlink:href="#DejaVuSans-65"/>
     <use x="1632.984375" xlink:href="#DejaVuSans-6e"/>
     <use x="1696.363281" xlink:href="#DejaVuSans-63"/>
     <use x="1751.34375" xlink:href="#DejaVuSans-69"/>
     <use x="1779.126953" xlink:href="#DejaVuSans-65"/>
     <use x="1840.650391" xlink:href="#DejaVuSans-73"/>
     <use x="1892.75" xlink:href="#DejaVuSans-20"/>
     <use x="1924.537109" xlink:href="#DejaVuSans-31"/>
     <use x="1988.160156" xlink:href="#DejaVuSans-2f"/>
     <use x="2021.851562" xlink:href="#DejaVuSans-35"/>
    </g>
   </g>
  </g>
 </g>
 <defs>
  <clipPath id="pdbb81f6d1e">
   <rect height="247.090909" width="507.272727" x="180" y="86.4"/>
  </clipPath>
  <clipPath id="p52a01e766d">
   <rect height="247.090909" width="507.272727" x="788.727273" y="86.4"/>
  </clipPath>
  <clipPath id="p17d42bea32">
   <rect height="247.090909" width="507.272727" x="180" y="382.909091"/>
  </clipPath>
  <clipPath id="pb918e22aa1">
   <rect height="247.090909" width="507.272727" x="788.727273" y="382.909091"/>
  </clipPath>
 </defs>
</svg>
