<?xml version="1.0" encoding="utf-8" standalone="no"?>
<!DOCTYPE svg PUBLIC "-//W3C//DTD SVG 1.1//EN"
  "http://www.w3.org/Graphics/SVG/1.1/DTD/svg11.dtd">
<svg height="720pt" version="1.1" viewBox="0 0 1440 720" width="1440pt" xmlns="http://www.w3.org/2000/svg" xmlns:xlink="http://www.w3.org/1999/xlink">
 <metadata>
  <rdf:RDF xmlns:cc="http://creativecommons.org/ns#" xmlns:dc="http://purl.org/dc/elements/1.1/" xmlns:rdf="http://www.w3.org/1999/02/22-rdf-syntax-ns#">
   <cc:Work>
    <dc:type rdf:resource="http://purl.org/dc/dcmitype/StillImage"/>
    <dc:date>2021-06-02T23:48:10.549947</dc:date>
    <dc:format>image/svg+xml</dc:format>
    <dc:creator>
     <cc:Agent>
      <dc:title>Matplotlib v3.4.1, https://matplotlib.org/</dc:title>
     </cc:Agent>
    </dc:creator>
   </cc:Work>
  </rdf:RDF>
 </metadata>
 <defs>
  <style type="text/css">*{stroke-linecap:butt;stroke-linejoin:round;}</style>
 </defs>
 <g id="figure_1">
  <g id="patch_1">
   <path d="M 0 720 
L 1440 720 
L 1440 0 
L 0 0 
z
" style="fill:none;"/>
  </g>
  <g id="axes_1">
   <g id="patch_2">
    <path d="M 180 333.490909 
L 687.272727 333.490909 
L 687.272727 86.4 
L 180 86.4 
z
" style="fill:#ffffff;"/>
   </g>
   <g id="matplotlib.axis_1">
    <g id="xtick_1">
     <g id="line2d_1">
      <defs>
       <path d="M 0 0 
L 0 3.5 
" id="m221e821d7b" style="stroke:#000000;stroke-width:0.8;"/>
      </defs>
      <g>
       <use style="stroke:#000000;stroke-width:0.8;" x="241.59465" xlink:href="#m221e821d7b" y="333.490909"/>
      </g>
     </g>
     <g id="text_1">
      <!-- −75 -->
      <g transform="translate(231.042306 348.089347)scale(0.1 -0.1)">
       <defs>
        <path d="M 678 2272 
L 4684 2272 
L 4684 1741 
L 678 1741 
L 678 2272 
z
" id="DejaVuSans-2212" transform="scale(0.015625)"/>
        <path d="M 525 4666 
L 3525 4666 
L 3525 4397 
L 1831 0 
L 1172 0 
L 2766 4134 
L 525 4134 
L 525 4666 
z
" id="DejaVuSans-37" transform="scale(0.015625)"/>
        <path d="M 691 4666 
L 3169 4666 
L 3169 4134 
L 1269 4134 
L 1269 2991 
Q 1406 3038 1543 3061 
Q 1681 3084 1819 3084 
Q 2600 3084 3056 2656 
Q 3513 2228 3513 1497 
Q 3513 744 3044 326 
Q 2575 -91 1722 -91 
Q 1428 -91 1123 -41 
Q 819 9 494 109 
L 494 744 
Q 775 591 1075 516 
Q 1375 441 1709 441 
Q 2250 441 2565 725 
Q 2881 1009 2881 1497 
Q 2881 1984 2565 2268 
Q 2250 2553 1709 2553 
Q 1456 2553 1204 2497 
Q 953 2441 691 2322 
L 691 4666 
z
" id="DejaVuSans-35" transform="scale(0.015625)"/>
       </defs>
       <use xlink:href="#DejaVuSans-2212"/>
       <use x="83.789062" xlink:href="#DejaVuSans-37"/>
       <use x="147.412109" xlink:href="#DejaVuSans-35"/>
      </g>
     </g>
    </g>
    <g id="xtick_2">
     <g id="line2d_2">
      <g>
       <use style="stroke:#000000;stroke-width:0.8;" x="305.822648" xlink:href="#m221e821d7b" y="333.490909"/>
      </g>
     </g>
     <g id="text_2">
      <!-- −50 -->
      <g transform="translate(295.270304 348.089347)scale(0.1 -0.1)">
       <defs>
        <path d="M 2034 4250 
Q 1547 4250 1301 3770 
Q 1056 3291 1056 2328 
Q 1056 1369 1301 889 
Q 1547 409 2034 409 
Q 2525 409 2770 889 
Q 3016 1369 3016 2328 
Q 3016 3291 2770 3770 
Q 2525 4250 2034 4250 
z
M 2034 4750 
Q 2819 4750 3233 4129 
Q 3647 3509 3647 2328 
Q 3647 1150 3233 529 
Q 2819 -91 2034 -91 
Q 1250 -91 836 529 
Q 422 1150 422 2328 
Q 422 3509 836 4129 
Q 1250 4750 2034 4750 
z
" id="DejaVuSans-30" transform="scale(0.015625)"/>
       </defs>
       <use xlink:href="#DejaVuSans-2212"/>
       <use x="83.789062" xlink:href="#DejaVuSans-35"/>
       <use x="147.412109" xlink:href="#DejaVuSans-30"/>
      </g>
     </g>
    </g>
    <g id="xtick_3">
     <g id="line2d_3">
      <g>
       <use style="stroke:#000000;stroke-width:0.8;" x="370.050646" xlink:href="#m221e821d7b" y="333.490909"/>
      </g>
     </g>
     <g id="text_3">
      <!-- −25 -->
      <g transform="translate(359.498302 348.089347)scale(0.1 -0.1)">
       <defs>
        <path d="M 1228 531 
L 3431 531 
L 3431 0 
L 469 0 
L 469 531 
Q 828 903 1448 1529 
Q 2069 2156 2228 2338 
Q 2531 2678 2651 2914 
Q 2772 3150 2772 3378 
Q 2772 3750 2511 3984 
Q 2250 4219 1831 4219 
Q 1534 4219 1204 4116 
Q 875 4013 500 3803 
L 500 4441 
Q 881 4594 1212 4672 
Q 1544 4750 1819 4750 
Q 2544 4750 2975 4387 
Q 3406 4025 3406 3419 
Q 3406 3131 3298 2873 
Q 3191 2616 2906 2266 
Q 2828 2175 2409 1742 
Q 1991 1309 1228 531 
z
" id="DejaVuSans-32" transform="scale(0.015625)"/>
       </defs>
       <use xlink:href="#DejaVuSans-2212"/>
       <use x="83.789062" xlink:href="#DejaVuSans-32"/>
       <use x="147.412109" xlink:href="#DejaVuSans-35"/>
      </g>
     </g>
    </g>
    <g id="xtick_4">
     <g id="line2d_4">
      <g>
       <use style="stroke:#000000;stroke-width:0.8;" x="434.278644" xlink:href="#m221e821d7b" y="333.490909"/>
      </g>
     </g>
     <g id="text_4">
      <!-- 0 -->
      <g transform="translate(431.097394 348.089347)scale(0.1 -0.1)">
       <use xlink:href="#DejaVuSans-30"/>
      </g>
     </g>
    </g>
    <g id="xtick_5">
     <g id="line2d_5">
      <g>
       <use style="stroke:#000000;stroke-width:0.8;" x="498.506641" xlink:href="#m221e821d7b" y="333.490909"/>
      </g>
     </g>
     <g id="text_5">
      <!-- 25 -->
      <g transform="translate(492.144141 348.089347)scale(0.1 -0.1)">
       <use xlink:href="#DejaVuSans-32"/>
       <use x="63.623047" xlink:href="#DejaVuSans-35"/>
      </g>
     </g>
    </g>
    <g id="xtick_6">
     <g id="line2d_6">
      <g>
       <use style="stroke:#000000;stroke-width:0.8;" x="562.734639" xlink:href="#m221e821d7b" y="333.490909"/>
      </g>
     </g>
     <g id="text_6">
      <!-- 50 -->
      <g transform="translate(556.372139 348.089347)scale(0.1 -0.1)">
       <use xlink:href="#DejaVuSans-35"/>
       <use x="63.623047" xlink:href="#DejaVuSans-30"/>
      </g>
     </g>
    </g>
    <g id="xtick_7">
     <g id="line2d_7">
      <g>
       <use style="stroke:#000000;stroke-width:0.8;" x="626.962637" xlink:href="#m221e821d7b" y="333.490909"/>
      </g>
     </g>
     <g id="text_7">
      <!-- 75 -->
      <g transform="translate(620.600137 348.089347)scale(0.1 -0.1)">
       <use xlink:href="#DejaVuSans-37"/>
       <use x="63.623047" xlink:href="#DejaVuSans-35"/>
      </g>
     </g>
    </g>
    <g id="text_8">
     <!-- Angles -->
     <g transform="translate(416.80277 361.767472)scale(0.1 -0.1)">
      <defs>
       <path d="M 2188 4044 
L 1331 1722 
L 3047 1722 
L 2188 4044 
z
M 1831 4666 
L 2547 4666 
L 4325 0 
L 3669 0 
L 3244 1197 
L 1141 1197 
L 716 0 
L 50 0 
L 1831 4666 
z
" id="DejaVuSans-41" transform="scale(0.015625)"/>
       <path d="M 3513 2113 
L 3513 0 
L 2938 0 
L 2938 2094 
Q 2938 2591 2744 2837 
Q 2550 3084 2163 3084 
Q 1697 3084 1428 2787 
Q 1159 2491 1159 1978 
L 1159 0 
L 581 0 
L 581 3500 
L 1159 3500 
L 1159 2956 
Q 1366 3272 1645 3428 
Q 1925 3584 2291 3584 
Q 2894 3584 3203 3211 
Q 3513 2838 3513 2113 
z
" id="DejaVuSans-6e" transform="scale(0.015625)"/>
       <path d="M 2906 1791 
Q 2906 2416 2648 2759 
Q 2391 3103 1925 3103 
Q 1463 3103 1205 2759 
Q 947 2416 947 1791 
Q 947 1169 1205 825 
Q 1463 481 1925 481 
Q 2391 481 2648 825 
Q 2906 1169 2906 1791 
z
M 3481 434 
Q 3481 -459 3084 -895 
Q 2688 -1331 1869 -1331 
Q 1566 -1331 1297 -1286 
Q 1028 -1241 775 -1147 
L 775 -588 
Q 1028 -725 1275 -790 
Q 1522 -856 1778 -856 
Q 2344 -856 2625 -561 
Q 2906 -266 2906 331 
L 2906 616 
Q 2728 306 2450 153 
Q 2172 0 1784 0 
Q 1141 0 747 490 
Q 353 981 353 1791 
Q 353 2603 747 3093 
Q 1141 3584 1784 3584 
Q 2172 3584 2450 3431 
Q 2728 3278 2906 2969 
L 2906 3500 
L 3481 3500 
L 3481 434 
z
" id="DejaVuSans-67" transform="scale(0.015625)"/>
       <path d="M 603 4863 
L 1178 4863 
L 1178 0 
L 603 0 
L 603 4863 
z
" id="DejaVuSans-6c" transform="scale(0.015625)"/>
       <path d="M 3597 1894 
L 3597 1613 
L 953 1613 
Q 991 1019 1311 708 
Q 1631 397 2203 397 
Q 2534 397 2845 478 
Q 3156 559 3463 722 
L 3463 178 
Q 3153 47 2828 -22 
Q 2503 -91 2169 -91 
Q 1331 -91 842 396 
Q 353 884 353 1716 
Q 353 2575 817 3079 
Q 1281 3584 2069 3584 
Q 2775 3584 3186 3129 
Q 3597 2675 3597 1894 
z
M 3022 2063 
Q 3016 2534 2758 2815 
Q 2500 3097 2075 3097 
Q 1594 3097 1305 2825 
Q 1016 2553 972 2059 
L 3022 2063 
z
" id="DejaVuSans-65" transform="scale(0.015625)"/>
       <path d="M 2834 3397 
L 2834 2853 
Q 2591 2978 2328 3040 
Q 2066 3103 1784 3103 
Q 1356 3103 1142 2972 
Q 928 2841 928 2578 
Q 928 2378 1081 2264 
Q 1234 2150 1697 2047 
L 1894 2003 
Q 2506 1872 2764 1633 
Q 3022 1394 3022 966 
Q 3022 478 2636 193 
Q 2250 -91 1575 -91 
Q 1294 -91 989 -36 
Q 684 19 347 128 
L 347 722 
Q 666 556 975 473 
Q 1284 391 1588 391 
Q 1994 391 2212 530 
Q 2431 669 2431 922 
Q 2431 1156 2273 1281 
Q 2116 1406 1581 1522 
L 1381 1569 
Q 847 1681 609 1914 
Q 372 2147 372 2553 
Q 372 3047 722 3315 
Q 1072 3584 1716 3584 
Q 2034 3584 2315 3537 
Q 2597 3491 2834 3397 
z
" id="DejaVuSans-73" transform="scale(0.015625)"/>
      </defs>
      <use xlink:href="#DejaVuSans-41"/>
      <use x="68.408203" xlink:href="#DejaVuSans-6e"/>
      <use x="131.787109" xlink:href="#DejaVuSans-67"/>
      <use x="195.263672" xlink:href="#DejaVuSans-6c"/>
      <use x="223.046875" xlink:href="#DejaVuSans-65"/>
      <use x="284.570312" xlink:href="#DejaVuSans-73"/>
     </g>
    </g>
   </g>
   <g id="matplotlib.axis_2">
    <g id="ytick_1">
     <g id="line2d_8">
      <defs>
       <path d="M 0 0 
L -3.5 0 
" id="m648d40952f" style="stroke:#000000;stroke-width:0.8;"/>
      </defs>
      <g>
       <use style="stroke:#000000;stroke-width:0.8;" x="180" xlink:href="#m648d40952f" y="312.563346"/>
      </g>
     </g>
     <g id="text_9">
      <!-- −50 -->
      <g transform="translate(151.895312 316.362565)scale(0.1 -0.1)">
       <use xlink:href="#DejaVuSans-2212"/>
       <use x="83.789062" xlink:href="#DejaVuSans-35"/>
       <use x="147.412109" xlink:href="#DejaVuSans-30"/>
      </g>
     </g>
    </g>
    <g id="ytick_2">
     <g id="line2d_9">
      <g>
       <use style="stroke:#000000;stroke-width:0.8;" x="180" xlink:href="#m648d40952f" y="269.576958"/>
      </g>
     </g>
     <g id="text_10">
      <!-- −40 -->
      <g transform="translate(151.895312 273.376177)scale(0.1 -0.1)">
       <defs>
        <path d="M 2419 4116 
L 825 1625 
L 2419 1625 
L 2419 4116 
z
M 2253 4666 
L 3047 4666 
L 3047 1625 
L 3713 1625 
L 3713 1100 
L 3047 1100 
L 3047 0 
L 2419 0 
L 2419 1100 
L 313 1100 
L 313 1709 
L 2253 4666 
z
" id="DejaVuSans-34" transform="scale(0.015625)"/>
       </defs>
       <use xlink:href="#DejaVuSans-2212"/>
       <use x="83.789062" xlink:href="#DejaVuSans-34"/>
       <use x="147.412109" xlink:href="#DejaVuSans-30"/>
      </g>
     </g>
    </g>
    <g id="ytick_3">
     <g id="line2d_10">
      <g>
       <use style="stroke:#000000;stroke-width:0.8;" x="180" xlink:href="#m648d40952f" y="226.59057"/>
      </g>
     </g>
     <g id="text_11">
      <!-- −30 -->
      <g transform="translate(151.895312 230.389789)scale(0.1 -0.1)">
       <defs>
        <path d="M 2597 2516 
Q 3050 2419 3304 2112 
Q 3559 1806 3559 1356 
Q 3559 666 3084 287 
Q 2609 -91 1734 -91 
Q 1441 -91 1130 -33 
Q 819 25 488 141 
L 488 750 
Q 750 597 1062 519 
Q 1375 441 1716 441 
Q 2309 441 2620 675 
Q 2931 909 2931 1356 
Q 2931 1769 2642 2001 
Q 2353 2234 1838 2234 
L 1294 2234 
L 1294 2753 
L 1863 2753 
Q 2328 2753 2575 2939 
Q 2822 3125 2822 3475 
Q 2822 3834 2567 4026 
Q 2313 4219 1838 4219 
Q 1578 4219 1281 4162 
Q 984 4106 628 3988 
L 628 4550 
Q 988 4650 1302 4700 
Q 1616 4750 1894 4750 
Q 2613 4750 3031 4423 
Q 3450 4097 3450 3541 
Q 3450 3153 3228 2886 
Q 3006 2619 2597 2516 
z
" id="DejaVuSans-33" transform="scale(0.015625)"/>
       </defs>
       <use xlink:href="#DejaVuSans-2212"/>
       <use x="83.789062" xlink:href="#DejaVuSans-33"/>
       <use x="147.412109" xlink:href="#DejaVuSans-30"/>
      </g>
     </g>
    </g>
    <g id="ytick_4">
     <g id="line2d_11">
      <g>
       <use style="stroke:#000000;stroke-width:0.8;" x="180" xlink:href="#m648d40952f" y="183.604182"/>
      </g>
     </g>
     <g id="text_12">
      <!-- −20 -->
      <g transform="translate(151.895312 187.4034)scale(0.1 -0.1)">
       <use xlink:href="#DejaVuSans-2212"/>
       <use x="83.789062" xlink:href="#DejaVuSans-32"/>
       <use x="147.412109" xlink:href="#DejaVuSans-30"/>
      </g>
     </g>
    </g>
    <g id="ytick_5">
     <g id="line2d_12">
      <g>
       <use style="stroke:#000000;stroke-width:0.8;" x="180" xlink:href="#m648d40952f" y="140.617793"/>
      </g>
     </g>
     <g id="text_13">
      <!-- −10 -->
      <g transform="translate(151.895312 144.417012)scale(0.1 -0.1)">
       <defs>
        <path d="M 794 531 
L 1825 531 
L 1825 4091 
L 703 3866 
L 703 4441 
L 1819 4666 
L 2450 4666 
L 2450 531 
L 3481 531 
L 3481 0 
L 794 0 
L 794 531 
z
" id="DejaVuSans-31" transform="scale(0.015625)"/>
       </defs>
       <use xlink:href="#DejaVuSans-2212"/>
       <use x="83.789062" xlink:href="#DejaVuSans-31"/>
       <use x="147.412109" xlink:href="#DejaVuSans-30"/>
      </g>
     </g>
    </g>
    <g id="ytick_6">
     <g id="line2d_13">
      <g>
       <use style="stroke:#000000;stroke-width:0.8;" x="180" xlink:href="#m648d40952f" y="97.631405"/>
      </g>
     </g>
     <g id="text_14">
      <!-- 0 -->
      <g transform="translate(166.6375 101.430624)scale(0.1 -0.1)">
       <use xlink:href="#DejaVuSans-30"/>
      </g>
     </g>
    </g>
    <g id="text_15">
     <!-- Spectrum[db] -->
     <g transform="translate(145.815625 244.424361)rotate(-90)scale(0.1 -0.1)">
      <defs>
       <path d="M 3425 4513 
L 3425 3897 
Q 3066 4069 2747 4153 
Q 2428 4238 2131 4238 
Q 1616 4238 1336 4038 
Q 1056 3838 1056 3469 
Q 1056 3159 1242 3001 
Q 1428 2844 1947 2747 
L 2328 2669 
Q 3034 2534 3370 2195 
Q 3706 1856 3706 1288 
Q 3706 609 3251 259 
Q 2797 -91 1919 -91 
Q 1588 -91 1214 -16 
Q 841 59 441 206 
L 441 856 
Q 825 641 1194 531 
Q 1563 422 1919 422 
Q 2459 422 2753 634 
Q 3047 847 3047 1241 
Q 3047 1584 2836 1778 
Q 2625 1972 2144 2069 
L 1759 2144 
Q 1053 2284 737 2584 
Q 422 2884 422 3419 
Q 422 4038 858 4394 
Q 1294 4750 2059 4750 
Q 2388 4750 2728 4690 
Q 3069 4631 3425 4513 
z
" id="DejaVuSans-53" transform="scale(0.015625)"/>
       <path d="M 1159 525 
L 1159 -1331 
L 581 -1331 
L 581 3500 
L 1159 3500 
L 1159 2969 
Q 1341 3281 1617 3432 
Q 1894 3584 2278 3584 
Q 2916 3584 3314 3078 
Q 3713 2572 3713 1747 
Q 3713 922 3314 415 
Q 2916 -91 2278 -91 
Q 1894 -91 1617 61 
Q 1341 213 1159 525 
z
M 3116 1747 
Q 3116 2381 2855 2742 
Q 2594 3103 2138 3103 
Q 1681 3103 1420 2742 
Q 1159 2381 1159 1747 
Q 1159 1113 1420 752 
Q 1681 391 2138 391 
Q 2594 391 2855 752 
Q 3116 1113 3116 1747 
z
" id="DejaVuSans-70" transform="scale(0.015625)"/>
       <path d="M 3122 3366 
L 3122 2828 
Q 2878 2963 2633 3030 
Q 2388 3097 2138 3097 
Q 1578 3097 1268 2742 
Q 959 2388 959 1747 
Q 959 1106 1268 751 
Q 1578 397 2138 397 
Q 2388 397 2633 464 
Q 2878 531 3122 666 
L 3122 134 
Q 2881 22 2623 -34 
Q 2366 -91 2075 -91 
Q 1284 -91 818 406 
Q 353 903 353 1747 
Q 353 2603 823 3093 
Q 1294 3584 2113 3584 
Q 2378 3584 2631 3529 
Q 2884 3475 3122 3366 
z
" id="DejaVuSans-63" transform="scale(0.015625)"/>
       <path d="M 1172 4494 
L 1172 3500 
L 2356 3500 
L 2356 3053 
L 1172 3053 
L 1172 1153 
Q 1172 725 1289 603 
Q 1406 481 1766 481 
L 2356 481 
L 2356 0 
L 1766 0 
Q 1100 0 847 248 
Q 594 497 594 1153 
L 594 3053 
L 172 3053 
L 172 3500 
L 594 3500 
L 594 4494 
L 1172 4494 
z
" id="DejaVuSans-74" transform="scale(0.015625)"/>
       <path d="M 2631 2963 
Q 2534 3019 2420 3045 
Q 2306 3072 2169 3072 
Q 1681 3072 1420 2755 
Q 1159 2438 1159 1844 
L 1159 0 
L 581 0 
L 581 3500 
L 1159 3500 
L 1159 2956 
Q 1341 3275 1631 3429 
Q 1922 3584 2338 3584 
Q 2397 3584 2469 3576 
Q 2541 3569 2628 3553 
L 2631 2963 
z
" id="DejaVuSans-72" transform="scale(0.015625)"/>
       <path d="M 544 1381 
L 544 3500 
L 1119 3500 
L 1119 1403 
Q 1119 906 1312 657 
Q 1506 409 1894 409 
Q 2359 409 2629 706 
Q 2900 1003 2900 1516 
L 2900 3500 
L 3475 3500 
L 3475 0 
L 2900 0 
L 2900 538 
Q 2691 219 2414 64 
Q 2138 -91 1772 -91 
Q 1169 -91 856 284 
Q 544 659 544 1381 
z
M 1991 3584 
L 1991 3584 
z
" id="DejaVuSans-75" transform="scale(0.015625)"/>
       <path d="M 3328 2828 
Q 3544 3216 3844 3400 
Q 4144 3584 4550 3584 
Q 5097 3584 5394 3201 
Q 5691 2819 5691 2113 
L 5691 0 
L 5113 0 
L 5113 2094 
Q 5113 2597 4934 2840 
Q 4756 3084 4391 3084 
Q 3944 3084 3684 2787 
Q 3425 2491 3425 1978 
L 3425 0 
L 2847 0 
L 2847 2094 
Q 2847 2600 2669 2842 
Q 2491 3084 2119 3084 
Q 1678 3084 1418 2786 
Q 1159 2488 1159 1978 
L 1159 0 
L 581 0 
L 581 3500 
L 1159 3500 
L 1159 2956 
Q 1356 3278 1631 3431 
Q 1906 3584 2284 3584 
Q 2666 3584 2933 3390 
Q 3200 3197 3328 2828 
z
" id="DejaVuSans-6d" transform="scale(0.015625)"/>
       <path d="M 550 4863 
L 1875 4863 
L 1875 4416 
L 1125 4416 
L 1125 -397 
L 1875 -397 
L 1875 -844 
L 550 -844 
L 550 4863 
z
" id="DejaVuSans-5b" transform="scale(0.015625)"/>
       <path d="M 2906 2969 
L 2906 4863 
L 3481 4863 
L 3481 0 
L 2906 0 
L 2906 525 
Q 2725 213 2448 61 
Q 2172 -91 1784 -91 
Q 1150 -91 751 415 
Q 353 922 353 1747 
Q 353 2572 751 3078 
Q 1150 3584 1784 3584 
Q 2172 3584 2448 3432 
Q 2725 3281 2906 2969 
z
M 947 1747 
Q 947 1113 1208 752 
Q 1469 391 1925 391 
Q 2381 391 2643 752 
Q 2906 1113 2906 1747 
Q 2906 2381 2643 2742 
Q 2381 3103 1925 3103 
Q 1469 3103 1208 2742 
Q 947 2381 947 1747 
z
" id="DejaVuSans-64" transform="scale(0.015625)"/>
       <path d="M 3116 1747 
Q 3116 2381 2855 2742 
Q 2594 3103 2138 3103 
Q 1681 3103 1420 2742 
Q 1159 2381 1159 1747 
Q 1159 1113 1420 752 
Q 1681 391 2138 391 
Q 2594 391 2855 752 
Q 3116 1113 3116 1747 
z
M 1159 2969 
Q 1341 3281 1617 3432 
Q 1894 3584 2278 3584 
Q 2916 3584 3314 3078 
Q 3713 2572 3713 1747 
Q 3713 922 3314 415 
Q 2916 -91 2278 -91 
Q 1894 -91 1617 61 
Q 1341 213 1159 525 
L 1159 0 
L 581 0 
L 581 4863 
L 1159 4863 
L 1159 2969 
z
" id="DejaVuSans-62" transform="scale(0.015625)"/>
       <path d="M 1947 4863 
L 1947 -844 
L 622 -844 
L 622 -397 
L 1369 -397 
L 1369 4416 
L 622 4416 
L 622 4863 
L 1947 4863 
z
" id="DejaVuSans-5d" transform="scale(0.015625)"/>
      </defs>
      <use xlink:href="#DejaVuSans-53"/>
      <use x="63.476562" xlink:href="#DejaVuSans-70"/>
      <use x="126.953125" xlink:href="#DejaVuSans-65"/>
      <use x="188.476562" xlink:href="#DejaVuSans-63"/>
      <use x="243.457031" xlink:href="#DejaVuSans-74"/>
      <use x="282.666016" xlink:href="#DejaVuSans-72"/>
      <use x="323.779297" xlink:href="#DejaVuSans-75"/>
      <use x="387.158203" xlink:href="#DejaVuSans-6d"/>
      <use x="484.570312" xlink:href="#DejaVuSans-5b"/>
      <use x="523.583984" xlink:href="#DejaVuSans-64"/>
      <use x="587.060547" xlink:href="#DejaVuSans-62"/>
      <use x="650.537109" xlink:href="#DejaVuSans-5d"/>
     </g>
    </g>
   </g>
   <g id="line2d_14">
    <path clip-path="url(#pca99d6cbc8)" d="M 203.057851 322.070724 
L 230.03361 322.188141 
L 250.58657 322.214513 
L 287.838808 322.066993 
L 305.822648 322.24581 
L 332.798407 322.186621 
L 344.359447 322.245039 
L 363.627846 322.149712 
L 375.188886 322.234512 
L 393.172725 322.038552 
L 402.164645 322.235167 
L 407.302885 322.058037 
L 417.579364 321.396792 
L 421.433044 321.494591 
L 431.709524 322.152859 
L 434.278644 321.792933 
L 435.563204 321.431549 
L 436.847764 320.922462 
L 438.132323 320.244891 
L 439.416883 319.377006 
L 440.701443 318.29532 
L 441.986003 316.973864 
L 443.270563 315.383062 
L 444.555123 313.48819 
L 445.839683 311.247205 
L 447.124243 308.607578 
L 448.408803 305.50152 
L 449.693363 301.838433 
L 450.977923 297.492348 
L 452.262483 292.279662 
L 453.547043 285.916414 
L 454.831603 277.927261 
L 456.116163 267.420669 
L 457.400723 252.391612 
L 458.685283 226.415175 
L 459.969843 97.631405 
L 461.254403 226.985447 
L 462.538963 252.460658 
L 463.823523 267.228624 
L 465.108083 277.536814 
L 466.392643 285.355587 
L 467.677203 291.565698 
L 468.961762 296.638592 
L 470.246322 300.856959 
L 471.530882 304.404357 
L 472.815442 307.407367 
L 474.100002 309.9576 
L 475.384562 312.12412 
L 476.669122 313.960907 
L 477.953682 315.511561 
L 479.238242 316.812392 
L 480.522802 317.894505 
L 481.807362 318.785231 
L 483.091922 319.509115 
L 484.376482 320.088578 
L 486.945602 320.895566 
L 489.514722 321.353971 
L 492.083842 321.586034 
L 495.937522 321.696134 
L 499.791201 321.621181 
L 502.360321 321.434739 
L 504.929441 321.063919 
L 507.498561 320.418911 
L 510.067681 319.39786 
L 511.352241 318.712418 
L 512.636801 317.891333 
L 513.921361 316.919471 
L 515.205921 315.780659 
L 516.490481 314.45724 
L 517.775041 312.929483 
L 519.059601 311.174784 
L 520.344161 309.166581 
L 521.628721 306.872856 
L 522.913281 304.254015 
L 524.197841 301.259774 
L 525.482401 297.824442 
L 526.766961 293.859438 
L 528.051521 289.240835 
L 529.33608 283.787258 
L 530.62064 277.217512 
L 531.9052 269.060389 
L 533.18976 258.432412 
L 534.47432 243.351046 
L 535.75888 217.5076 
L 537.04344 109.039756 
L 538.328 217.262656 
L 539.61256 242.918788 
L 540.89712 257.805478 
L 542.18168 268.242966 
L 543.46624 276.21798 
L 544.7508 282.616901 
L 546.03536 287.91341 
L 547.31992 292.390944 
L 548.60448 296.232929 
L 549.88904 299.565165 
L 551.1736 302.477893 
L 552.45816 305.038235 
L 553.74272 307.297629 
L 555.02728 309.296506 
L 556.31184 311.067352 
L 557.5964 312.636775 
L 560.165519 315.256641 
L 562.734639 317.296949 
L 565.303759 318.863879 
L 567.872879 320.041323 
L 570.441999 320.898208 
L 573.011119 321.492954 
L 575.580239 321.876206 
L 579.433919 322.150467 
L 583.287599 322.17651 
L 589.710398 321.942472 
L 601.271438 321.474383 
L 608.978798 321.397829 
L 620.539837 321.555248 
L 646.231037 321.987081 
L 664.214876 322.070383 
L 664.214876 322.070383 
" style="fill:none;stroke:#1f77b4;stroke-linecap:square;stroke-width:1.5;"/>
   </g>
   <g id="line2d_15">
    <defs>
     <path d="M -3 3 
L 3 -3 
M -3 -3 
L 3 3 
" id="m31352822c4" style="stroke:#ff7f0e;"/>
    </defs>
    <g clip-path="url(#pca99d6cbc8)">
     <use style="fill:#ff7f0e;stroke:#ff7f0e;" x="459.969843" xlink:href="#m31352822c4" y="97.631405"/>
     <use style="fill:#ff7f0e;stroke:#ff7f0e;" x="537.04344" xlink:href="#m31352822c4" y="97.631405"/>
    </g>
   </g>
   <g id="patch_3">
    <path d="M 180 333.490909 
L 180 86.4 
" style="fill:none;stroke:#000000;stroke-linecap:square;stroke-linejoin:miter;stroke-width:0.8;"/>
   </g>
   <g id="patch_4">
    <path d="M 687.272727 333.490909 
L 687.272727 86.4 
" style="fill:none;stroke:#000000;stroke-linecap:square;stroke-linejoin:miter;stroke-width:0.8;"/>
   </g>
   <g id="patch_5">
    <path d="M 180 333.490909 
L 687.272727 333.490909 
" style="fill:none;stroke:#000000;stroke-linecap:square;stroke-linejoin:miter;stroke-width:0.8;"/>
   </g>
   <g id="patch_6">
    <path d="M 180 86.4 
L 687.272727 86.4 
" style="fill:none;stroke:#000000;stroke-linecap:square;stroke-linejoin:miter;stroke-width:0.8;"/>
   </g>
   <g id="text_16">
    <!-- Wide Angles / Uncorrelated Frequencies -->
    <g transform="translate(314.147301 80.4)scale(0.12 -0.12)">
     <defs>
      <path d="M 213 4666 
L 850 4666 
L 1831 722 
L 2809 4666 
L 3519 4666 
L 4500 722 
L 5478 4666 
L 6119 4666 
L 4947 0 
L 4153 0 
L 3169 4050 
L 2175 0 
L 1381 0 
L 213 4666 
z
" id="DejaVuSans-57" transform="scale(0.015625)"/>
      <path d="M 603 3500 
L 1178 3500 
L 1178 0 
L 603 0 
L 603 3500 
z
M 603 4863 
L 1178 4863 
L 1178 4134 
L 603 4134 
L 603 4863 
z
" id="DejaVuSans-69" transform="scale(0.015625)"/>
      <path id="DejaVuSans-20" transform="scale(0.015625)"/>
      <path d="M 1625 4666 
L 2156 4666 
L 531 -594 
L 0 -594 
L 1625 4666 
z
" id="DejaVuSans-2f" transform="scale(0.015625)"/>
      <path d="M 556 4666 
L 1191 4666 
L 1191 1831 
Q 1191 1081 1462 751 
Q 1734 422 2344 422 
Q 2950 422 3222 751 
Q 3494 1081 3494 1831 
L 3494 4666 
L 4128 4666 
L 4128 1753 
Q 4128 841 3676 375 
Q 3225 -91 2344 -91 
Q 1459 -91 1007 375 
Q 556 841 556 1753 
L 556 4666 
z
" id="DejaVuSans-55" transform="scale(0.015625)"/>
      <path d="M 1959 3097 
Q 1497 3097 1228 2736 
Q 959 2375 959 1747 
Q 959 1119 1226 758 
Q 1494 397 1959 397 
Q 2419 397 2687 759 
Q 2956 1122 2956 1747 
Q 2956 2369 2687 2733 
Q 2419 3097 1959 3097 
z
M 1959 3584 
Q 2709 3584 3137 3096 
Q 3566 2609 3566 1747 
Q 3566 888 3137 398 
Q 2709 -91 1959 -91 
Q 1206 -91 779 398 
Q 353 888 353 1747 
Q 353 2609 779 3096 
Q 1206 3584 1959 3584 
z
" id="DejaVuSans-6f" transform="scale(0.015625)"/>
      <path d="M 2194 1759 
Q 1497 1759 1228 1600 
Q 959 1441 959 1056 
Q 959 750 1161 570 
Q 1363 391 1709 391 
Q 2188 391 2477 730 
Q 2766 1069 2766 1631 
L 2766 1759 
L 2194 1759 
z
M 3341 1997 
L 3341 0 
L 2766 0 
L 2766 531 
Q 2569 213 2275 61 
Q 1981 -91 1556 -91 
Q 1019 -91 701 211 
Q 384 513 384 1019 
Q 384 1609 779 1909 
Q 1175 2209 1959 2209 
L 2766 2209 
L 2766 2266 
Q 2766 2663 2505 2880 
Q 2244 3097 1772 3097 
Q 1472 3097 1187 3025 
Q 903 2953 641 2809 
L 641 3341 
Q 956 3463 1253 3523 
Q 1550 3584 1831 3584 
Q 2591 3584 2966 3190 
Q 3341 2797 3341 1997 
z
" id="DejaVuSans-61" transform="scale(0.015625)"/>
      <path d="M 628 4666 
L 3309 4666 
L 3309 4134 
L 1259 4134 
L 1259 2759 
L 3109 2759 
L 3109 2228 
L 1259 2228 
L 1259 0 
L 628 0 
L 628 4666 
z
" id="DejaVuSans-46" transform="scale(0.015625)"/>
      <path d="M 947 1747 
Q 947 1113 1208 752 
Q 1469 391 1925 391 
Q 2381 391 2643 752 
Q 2906 1113 2906 1747 
Q 2906 2381 2643 2742 
Q 2381 3103 1925 3103 
Q 1469 3103 1208 2742 
Q 947 2381 947 1747 
z
M 2906 525 
Q 2725 213 2448 61 
Q 2172 -91 1784 -91 
Q 1150 -91 751 415 
Q 353 922 353 1747 
Q 353 2572 751 3078 
Q 1150 3584 1784 3584 
Q 2172 3584 2448 3432 
Q 2725 3281 2906 2969 
L 2906 3500 
L 3481 3500 
L 3481 -1331 
L 2906 -1331 
L 2906 525 
z
" id="DejaVuSans-71" transform="scale(0.015625)"/>
     </defs>
     <use xlink:href="#DejaVuSans-57"/>
     <use x="96.626953" xlink:href="#DejaVuSans-69"/>
     <use x="124.410156" xlink:href="#DejaVuSans-64"/>
     <use x="187.886719" xlink:href="#DejaVuSans-65"/>
     <use x="249.410156" xlink:href="#DejaVuSans-20"/>
     <use x="281.197266" xlink:href="#DejaVuSans-41"/>
     <use x="349.605469" xlink:href="#DejaVuSans-6e"/>
     <use x="412.984375" xlink:href="#DejaVuSans-67"/>
     <use x="476.460938" xlink:href="#DejaVuSans-6c"/>
     <use x="504.244141" xlink:href="#DejaVuSans-65"/>
     <use x="565.767578" xlink:href="#DejaVuSans-73"/>
     <use x="617.867188" xlink:href="#DejaVuSans-20"/>
     <use x="649.654297" xlink:href="#DejaVuSans-2f"/>
     <use x="683.345703" xlink:href="#DejaVuSans-20"/>
     <use x="715.132812" xlink:href="#DejaVuSans-55"/>
     <use x="788.326172" xlink:href="#DejaVuSans-6e"/>
     <use x="851.705078" xlink:href="#DejaVuSans-63"/>
     <use x="906.685547" xlink:href="#DejaVuSans-6f"/>
     <use x="967.867188" xlink:href="#DejaVuSans-72"/>
     <use x="1007.230469" xlink:href="#DejaVuSans-72"/>
     <use x="1046.09375" xlink:href="#DejaVuSans-65"/>
     <use x="1107.617188" xlink:href="#DejaVuSans-6c"/>
     <use x="1135.400391" xlink:href="#DejaVuSans-61"/>
     <use x="1196.679688" xlink:href="#DejaVuSans-74"/>
     <use x="1235.888672" xlink:href="#DejaVuSans-65"/>
     <use x="1297.412109" xlink:href="#DejaVuSans-64"/>
     <use x="1360.888672" xlink:href="#DejaVuSans-20"/>
     <use x="1392.675781" xlink:href="#DejaVuSans-46"/>
     <use x="1442.945312" xlink:href="#DejaVuSans-72"/>
     <use x="1481.808594" xlink:href="#DejaVuSans-65"/>
     <use x="1543.332031" xlink:href="#DejaVuSans-71"/>
     <use x="1606.808594" xlink:href="#DejaVuSans-75"/>
     <use x="1670.1875" xlink:href="#DejaVuSans-65"/>
     <use x="1731.710938" xlink:href="#DejaVuSans-6e"/>
     <use x="1795.089844" xlink:href="#DejaVuSans-63"/>
     <use x="1850.070312" xlink:href="#DejaVuSans-69"/>
     <use x="1877.853516" xlink:href="#DejaVuSans-65"/>
     <use x="1939.376953" xlink:href="#DejaVuSans-73"/>
    </g>
   </g>
  </g>
  <g id="axes_2">
   <g id="patch_7">
    <path d="M 788.727273 333.490909 
L 1296 333.490909 
L 1296 86.4 
L 788.727273 86.4 
z
" style="fill:#ffffff;"/>
   </g>
   <g id="matplotlib.axis_3">
    <g id="xtick_8">
     <g id="line2d_16">
      <g>
       <use style="stroke:#000000;stroke-width:0.8;" x="850.321923" xlink:href="#m221e821d7b" y="333.490909"/>
      </g>
     </g>
     <g id="text_17">
      <!-- −75 -->
      <g transform="translate(839.769579 348.089347)scale(0.1 -0.1)">
       <use xlink:href="#DejaVuSans-2212"/>
       <use x="83.789062" xlink:href="#DejaVuSans-37"/>
       <use x="147.412109" xlink:href="#DejaVuSans-35"/>
      </g>
     </g>
    </g>
    <g id="xtick_9">
     <g id="line2d_17">
      <g>
       <use style="stroke:#000000;stroke-width:0.8;" x="914.549921" xlink:href="#m221e821d7b" y="333.490909"/>
      </g>
     </g>
     <g id="text_18">
      <!-- −50 -->
      <g transform="translate(903.997577 348.089347)scale(0.1 -0.1)">
       <use xlink:href="#DejaVuSans-2212"/>
       <use x="83.789062" xlink:href="#DejaVuSans-35"/>
       <use x="147.412109" xlink:href="#DejaVuSans-30"/>
      </g>
     </g>
    </g>
    <g id="xtick_10">
     <g id="line2d_18">
      <g>
       <use style="stroke:#000000;stroke-width:0.8;" x="978.777918" xlink:href="#m221e821d7b" y="333.490909"/>
      </g>
     </g>
     <g id="text_19">
      <!-- −25 -->
      <g transform="translate(968.225575 348.089347)scale(0.1 -0.1)">
       <use xlink:href="#DejaVuSans-2212"/>
       <use x="83.789062" xlink:href="#DejaVuSans-32"/>
       <use x="147.412109" xlink:href="#DejaVuSans-35"/>
      </g>
     </g>
    </g>
    <g id="xtick_11">
     <g id="line2d_19">
      <g>
       <use style="stroke:#000000;stroke-width:0.8;" x="1043.005916" xlink:href="#m221e821d7b" y="333.490909"/>
      </g>
     </g>
     <g id="text_20">
      <!-- 0 -->
      <g transform="translate(1039.824666 348.089347)scale(0.1 -0.1)">
       <use xlink:href="#DejaVuSans-30"/>
      </g>
     </g>
    </g>
    <g id="xtick_12">
     <g id="line2d_20">
      <g>
       <use style="stroke:#000000;stroke-width:0.8;" x="1107.233914" xlink:href="#m221e821d7b" y="333.490909"/>
      </g>
     </g>
     <g id="text_21">
      <!-- 25 -->
      <g transform="translate(1100.871414 348.089347)scale(0.1 -0.1)">
       <use xlink:href="#DejaVuSans-32"/>
       <use x="63.623047" xlink:href="#DejaVuSans-35"/>
      </g>
     </g>
    </g>
    <g id="xtick_13">
     <g id="line2d_21">
      <g>
       <use style="stroke:#000000;stroke-width:0.8;" x="1171.461912" xlink:href="#m221e821d7b" y="333.490909"/>
      </g>
     </g>
     <g id="text_22">
      <!-- 50 -->
      <g transform="translate(1165.099412 348.089347)scale(0.1 -0.1)">
       <use xlink:href="#DejaVuSans-35"/>
       <use x="63.623047" xlink:href="#DejaVuSans-30"/>
      </g>
     </g>
    </g>
    <g id="xtick_14">
     <g id="line2d_22">
      <g>
       <use style="stroke:#000000;stroke-width:0.8;" x="1235.68991" xlink:href="#m221e821d7b" y="333.490909"/>
      </g>
     </g>
     <g id="text_23">
      <!-- 75 -->
      <g transform="translate(1229.32741 348.089347)scale(0.1 -0.1)">
       <use xlink:href="#DejaVuSans-37"/>
       <use x="63.623047" xlink:href="#DejaVuSans-35"/>
      </g>
     </g>
    </g>
    <g id="text_24">
     <!-- Angles -->
     <g transform="translate(1025.530043 361.767472)scale(0.1 -0.1)">
      <use xlink:href="#DejaVuSans-41"/>
      <use x="68.408203" xlink:href="#DejaVuSans-6e"/>
      <use x="131.787109" xlink:href="#DejaVuSans-67"/>
      <use x="195.263672" xlink:href="#DejaVuSans-6c"/>
      <use x="223.046875" xlink:href="#DejaVuSans-65"/>
      <use x="284.570312" xlink:href="#DejaVuSans-73"/>
     </g>
    </g>
   </g>
   <g id="matplotlib.axis_4">
    <g id="ytick_7">
     <g id="line2d_23">
      <g>
       <use style="stroke:#000000;stroke-width:0.8;" x="788.727273" xlink:href="#m648d40952f" y="328.644919"/>
      </g>
     </g>
     <g id="text_25">
      <!-- −4.0 -->
      <g transform="translate(757.44446 332.444138)scale(0.1 -0.1)">
       <defs>
        <path d="M 684 794 
L 1344 794 
L 1344 0 
L 684 0 
L 684 794 
z
" id="DejaVuSans-2e" transform="scale(0.015625)"/>
       </defs>
       <use xlink:href="#DejaVuSans-2212"/>
       <use x="83.789062" xlink:href="#DejaVuSans-34"/>
       <use x="147.412109" xlink:href="#DejaVuSans-2e"/>
       <use x="179.199219" xlink:href="#DejaVuSans-30"/>
      </g>
     </g>
    </g>
    <g id="ytick_8">
     <g id="line2d_24">
      <g>
       <use style="stroke:#000000;stroke-width:0.8;" x="788.727273" xlink:href="#m648d40952f" y="299.76823"/>
      </g>
     </g>
     <g id="text_26">
      <!-- −3.5 -->
      <g transform="translate(757.44446 303.567448)scale(0.1 -0.1)">
       <use xlink:href="#DejaVuSans-2212"/>
       <use x="83.789062" xlink:href="#DejaVuSans-33"/>
       <use x="147.412109" xlink:href="#DejaVuSans-2e"/>
       <use x="179.199219" xlink:href="#DejaVuSans-35"/>
      </g>
     </g>
    </g>
    <g id="ytick_9">
     <g id="line2d_25">
      <g>
       <use style="stroke:#000000;stroke-width:0.8;" x="788.727273" xlink:href="#m648d40952f" y="270.89154"/>
      </g>
     </g>
     <g id="text_27">
      <!-- −3.0 -->
      <g transform="translate(757.44446 274.690759)scale(0.1 -0.1)">
       <use xlink:href="#DejaVuSans-2212"/>
       <use x="83.789062" xlink:href="#DejaVuSans-33"/>
       <use x="147.412109" xlink:href="#DejaVuSans-2e"/>
       <use x="179.199219" xlink:href="#DejaVuSans-30"/>
      </g>
     </g>
    </g>
    <g id="ytick_10">
     <g id="line2d_26">
      <g>
       <use style="stroke:#000000;stroke-width:0.8;" x="788.727273" xlink:href="#m648d40952f" y="242.014851"/>
      </g>
     </g>
     <g id="text_28">
      <!-- −2.5 -->
      <g transform="translate(757.44446 245.81407)scale(0.1 -0.1)">
       <use xlink:href="#DejaVuSans-2212"/>
       <use x="83.789062" xlink:href="#DejaVuSans-32"/>
       <use x="147.412109" xlink:href="#DejaVuSans-2e"/>
       <use x="179.199219" xlink:href="#DejaVuSans-35"/>
      </g>
     </g>
    </g>
    <g id="ytick_11">
     <g id="line2d_27">
      <g>
       <use style="stroke:#000000;stroke-width:0.8;" x="788.727273" xlink:href="#m648d40952f" y="213.138162"/>
      </g>
     </g>
     <g id="text_29">
      <!-- −2.0 -->
      <g transform="translate(757.44446 216.937381)scale(0.1 -0.1)">
       <use xlink:href="#DejaVuSans-2212"/>
       <use x="83.789062" xlink:href="#DejaVuSans-32"/>
       <use x="147.412109" xlink:href="#DejaVuSans-2e"/>
       <use x="179.199219" xlink:href="#DejaVuSans-30"/>
      </g>
     </g>
    </g>
    <g id="ytick_12">
     <g id="line2d_28">
      <g>
       <use style="stroke:#000000;stroke-width:0.8;" x="788.727273" xlink:href="#m648d40952f" y="184.261473"/>
      </g>
     </g>
     <g id="text_30">
      <!-- −1.5 -->
      <g transform="translate(757.44446 188.060691)scale(0.1 -0.1)">
       <use xlink:href="#DejaVuSans-2212"/>
       <use x="83.789062" xlink:href="#DejaVuSans-31"/>
       <use x="147.412109" xlink:href="#DejaVuSans-2e"/>
       <use x="179.199219" xlink:href="#DejaVuSans-35"/>
      </g>
     </g>
    </g>
    <g id="ytick_13">
     <g id="line2d_29">
      <g>
       <use style="stroke:#000000;stroke-width:0.8;" x="788.727273" xlink:href="#m648d40952f" y="155.384783"/>
      </g>
     </g>
     <g id="text_31">
      <!-- −1.0 -->
      <g transform="translate(757.44446 159.184002)scale(0.1 -0.1)">
       <use xlink:href="#DejaVuSans-2212"/>
       <use x="83.789062" xlink:href="#DejaVuSans-31"/>
       <use x="147.412109" xlink:href="#DejaVuSans-2e"/>
       <use x="179.199219" xlink:href="#DejaVuSans-30"/>
      </g>
     </g>
    </g>
    <g id="ytick_14">
     <g id="line2d_30">
      <g>
       <use style="stroke:#000000;stroke-width:0.8;" x="788.727273" xlink:href="#m648d40952f" y="126.508094"/>
      </g>
     </g>
     <g id="text_32">
      <!-- −0.5 -->
      <g transform="translate(757.44446 130.307313)scale(0.1 -0.1)">
       <use xlink:href="#DejaVuSans-2212"/>
       <use x="83.789062" xlink:href="#DejaVuSans-30"/>
       <use x="147.412109" xlink:href="#DejaVuSans-2e"/>
       <use x="179.199219" xlink:href="#DejaVuSans-35"/>
      </g>
     </g>
    </g>
    <g id="ytick_15">
     <g id="line2d_31">
      <g>
       <use style="stroke:#000000;stroke-width:0.8;" x="788.727273" xlink:href="#m648d40952f" y="97.631405"/>
      </g>
     </g>
     <g id="text_33">
      <!-- 0.0 -->
      <g transform="translate(765.824148 101.430624)scale(0.1 -0.1)">
       <use xlink:href="#DejaVuSans-30"/>
       <use x="63.623047" xlink:href="#DejaVuSans-2e"/>
       <use x="95.410156" xlink:href="#DejaVuSans-30"/>
      </g>
     </g>
    </g>
    <g id="text_34">
     <!-- Spectrum[db] -->
     <g transform="translate(751.364773 244.424361)rotate(-90)scale(0.1 -0.1)">
      <use xlink:href="#DejaVuSans-53"/>
      <use x="63.476562" xlink:href="#DejaVuSans-70"/>
      <use x="126.953125" xlink:href="#DejaVuSans-65"/>
      <use x="188.476562" xlink:href="#DejaVuSans-63"/>
      <use x="243.457031" xlink:href="#DejaVuSans-74"/>
      <use x="282.666016" xlink:href="#DejaVuSans-72"/>
      <use x="323.779297" xlink:href="#DejaVuSans-75"/>
      <use x="387.158203" xlink:href="#DejaVuSans-6d"/>
      <use x="484.570312" xlink:href="#DejaVuSans-5b"/>
      <use x="523.583984" xlink:href="#DejaVuSans-64"/>
      <use x="587.060547" xlink:href="#DejaVuSans-62"/>
      <use x="650.537109" xlink:href="#DejaVuSans-5d"/>
     </g>
    </g>
   </g>
   <g id="line2d_32">
    <path clip-path="url(#p867e89d6b2)" d="M 811.785124 306.635997 
L 815.638804 306.505225 
L 819.492484 306.111545 
L 823.346164 305.451456 
L 827.199843 304.521178 
L 831.053523 303.319878 
L 834.907203 301.854449 
L 838.760883 300.145976 
L 843.899123 297.569321 
L 852.891043 292.878168 
L 855.460163 291.722446 
L 858.029282 290.768186 
L 860.598402 290.094334 
L 863.167522 289.78419 
L 864.452082 289.791518 
L 865.736642 289.920335 
L 867.021202 290.179727 
L 868.305762 290.577797 
L 869.590322 291.121365 
L 870.874882 291.815674 
L 872.159442 292.664078 
L 873.444002 293.667747 
L 874.728562 294.825382 
L 877.297682 297.583471 
L 879.866802 300.86956 
L 882.435922 304.56285 
L 890.143281 316.088745 
L 891.427841 317.726909 
L 892.712401 319.179772 
L 893.996961 320.404148 
L 895.281521 321.355719 
L 896.566081 321.989368 
L 897.850641 322.259504 
L 899.135201 322.120392 
L 900.419761 321.526473 
L 901.704321 320.432707 
L 902.988881 318.79491 
L 904.273441 316.570135 
L 905.558001 313.717087 
L 906.842561 310.196596 
L 908.127121 305.972191 
L 909.411681 301.010772 
L 910.696241 295.28345 
L 911.980801 288.766577 
L 913.265361 281.443026 
L 914.549921 273.303784 
L 915.834481 264.349906 
L 918.4036 244.067757 
L 920.97272 220.910718 
L 923.54184 195.562196 
L 928.68008 143.709581 
L 929.96464 132.018844 
L 931.2492 121.498534 
L 932.53376 112.506063 
L 933.81832 105.378553 
L 935.10288 100.402956 
L 936.38744 97.786249 
L 937.672 97.631405 
L 938.95656 99.924537 
L 940.24112 104.536349 
L 941.52568 111.237583 
L 942.81024 119.724792 
L 944.0948 129.650857 
L 946.66392 152.38597 
L 953.086719 212.164614 
L 955.655839 233.170819 
L 958.224959 251.445749 
L 960.794079 266.875649 
L 962.078639 273.5619 
L 963.363199 279.604753 
L 964.647759 285.044238 
L 965.932319 289.923594 
L 967.216879 294.286747 
L 968.501439 298.176051 
L 969.785999 301.630336 
L 971.070559 304.683306 
L 972.355119 307.362353 
L 973.639679 309.687851 
L 974.924239 311.672947 
L 976.208799 313.3239 
L 977.493359 314.640931 
L 978.777918 315.619569 
L 980.062478 316.252405 
L 981.347038 316.531191 
L 982.631598 316.449159 
L 983.916158 316.003449 
L 985.200718 315.197528 
L 986.485278 314.04347 
L 987.769838 312.563945 
L 989.054398 310.793799 
L 991.623518 306.587137 
L 995.477198 299.713497 
L 996.761758 297.633133 
L 998.046318 295.820098 
L 999.330878 294.365308 
L 1000.615438 293.347204 
L 1001.899998 292.825931 
L 1003.184558 292.838412 
L 1004.469118 293.39493 
L 1005.753678 294.477703 
L 1007.038238 296.04168 
L 1008.322797 298.017486 
L 1010.891917 302.835458 
L 1014.745597 310.63106 
L 1016.030157 312.971252 
L 1017.314717 315.044203 
L 1018.599277 316.793694 
L 1019.883837 318.184457 
L 1021.168397 319.202848 
L 1022.452957 319.856314 
L 1023.737517 320.171706 
L 1025.022077 320.192415 
L 1026.306637 319.974403 
L 1028.875757 319.078003 
L 1034.013997 316.968642 
L 1036.583117 316.025381 
L 1037.867677 315.442819 
L 1039.152236 314.66043 
L 1040.436796 313.554943 
L 1041.721356 311.985988 
L 1043.005916 309.802142 
L 1044.290476 306.847341 
L 1045.575036 302.967343 
L 1046.859596 298.016101 
L 1048.144156 291.862099 
L 1049.428716 284.394897 
L 1050.713276 275.532314 
L 1051.997836 265.228813 
L 1053.282396 253.485732 
L 1054.566956 240.364007 
L 1057.136076 210.623078 
L 1060.989756 162.524057 
L 1062.274316 147.886876 
L 1063.558876 135.276673 
L 1064.843436 125.563658 
L 1066.127996 119.523808 
L 1067.412556 117.706941 
L 1068.697115 120.326435 
L 1069.981675 127.211928 
L 1071.266235 137.844716 
L 1072.550795 151.460891 
L 1075.119915 184.136606 
L 1078.973595 235.195126 
L 1080.258155 250.555194 
L 1081.542715 264.541319 
L 1082.827275 276.981681 
L 1084.111835 287.781576 
L 1085.396395 296.908157 
L 1086.680955 304.378481 
L 1087.965515 310.25055 
L 1089.250075 314.616719 
L 1090.534635 317.598804 
L 1091.819195 319.3442 
L 1093.103755 320.022331 
L 1094.388315 319.820844 
L 1095.672875 318.940979 
L 1096.957435 317.591719 
L 1100.811114 312.770701 
L 1102.095674 311.50662 
L 1103.380234 310.64042 
L 1104.664794 310.246154 
L 1105.949354 310.3495 
L 1107.233914 310.927217 
L 1108.518474 311.910314 
L 1109.803034 313.190452 
L 1112.372154 316.065022 
L 1113.656714 317.328763 
L 1114.941274 318.246926 
L 1116.225834 318.651981 
L 1117.510394 318.387618 
L 1118.794954 317.312944 
L 1120.079514 315.305321 
L 1121.364074 312.262174 
L 1122.648634 308.102159 
L 1123.933194 302.766048 
L 1125.217754 296.217656 
L 1126.502314 288.445081 
L 1127.786874 279.46248 
L 1129.071434 269.31254 
L 1130.355993 258.069725 
L 1132.925113 232.786761 
L 1140.632473 151.366114 
L 1141.917033 140.612726 
L 1143.201593 131.740799 
L 1144.486153 125.089448 
L 1145.770713 120.901882 
L 1147.055273 119.298069 
L 1148.339833 120.261905 
L 1149.624393 123.646226 
L 1150.908953 129.194311 
L 1152.193513 136.572448 
L 1153.478073 145.406268 
L 1156.047193 165.933773 
L 1161.185432 209.71776 
L 1163.754552 229.634072 
L 1166.323672 247.104544 
L 1167.608232 254.828069 
L 1168.892792 261.867173 
L 1170.177352 268.232737 
L 1171.461912 273.946537 
L 1172.746472 279.038702 
L 1174.031032 283.545608 
L 1175.315592 287.508115 
L 1176.600152 290.9701 
L 1177.884712 293.977205 
L 1179.169272 296.575772 
L 1180.453832 298.81193 
L 1181.738392 300.7308 
L 1183.022952 302.375814 
L 1184.307512 303.788138 
L 1185.592072 305.00618 
L 1188.161192 306.997037 
L 1190.730311 308.588031 
L 1194.583991 310.602719 
L 1204.860471 315.52322 
L 1208.714151 317.181856 
L 1211.283271 318.129552 
L 1213.852391 318.904071 
L 1216.421511 319.474971 
L 1218.990631 319.823034 
L 1221.55975 319.94086 
L 1224.12887 319.832226 
L 1226.69799 319.510627 
L 1229.26711 318.997347 
L 1233.12079 317.92804 
L 1236.97447 316.593112 
L 1243.39727 314.070566 
L 1251.104629 311.092293 
L 1256.242869 309.400413 
L 1260.096549 308.363955 
L 1263.950229 307.557571 
L 1267.803909 306.997824 
L 1271.657589 306.694037 
L 1272.942149 306.650512 
L 1272.942149 306.650512 
" style="fill:none;stroke:#1f77b4;stroke-linecap:square;stroke-width:1.5;"/>
   </g>
   <g id="line2d_33">
    <g clip-path="url(#p867e89d6b2)">
     <use style="fill:#ff7f0e;stroke:#ff7f0e;" x="1068.697115" xlink:href="#m31352822c4" y="97.631405"/>
     <use style="fill:#ff7f0e;stroke:#ff7f0e;" x="1145.770713" xlink:href="#m31352822c4" y="97.631405"/>
    </g>
   </g>
   <g id="patch_8">
    <path d="M 788.727273 333.490909 
L 788.727273 86.4 
" style="fill:none;stroke:#000000;stroke-linecap:square;stroke-linejoin:miter;stroke-width:0.8;"/>
   </g>
   <g id="patch_9">
    <path d="M 1296 333.490909 
L 1296 86.4 
" style="fill:none;stroke:#000000;stroke-linecap:square;stroke-linejoin:miter;stroke-width:0.8;"/>
   </g>
   <g id="patch_10">
    <path d="M 788.727273 333.490909 
L 1296 333.490909 
" style="fill:none;stroke:#000000;stroke-linecap:square;stroke-linejoin:miter;stroke-width:0.8;"/>
   </g>
   <g id="patch_11">
    <path d="M 788.727273 86.4 
L 1296 86.4 
" style="fill:none;stroke:#000000;stroke-linecap:square;stroke-linejoin:miter;stroke-width:0.8;"/>
   </g>
   <g id="text_35">
    <!-- Wide Angles / Correlated Frequencies 1/5 -->
    <g transform="translate(918.614574 80.4)scale(0.12 -0.12)">
     <defs>
      <path d="M 4122 4306 
L 4122 3641 
Q 3803 3938 3442 4084 
Q 3081 4231 2675 4231 
Q 1875 4231 1450 3742 
Q 1025 3253 1025 2328 
Q 1025 1406 1450 917 
Q 1875 428 2675 428 
Q 3081 428 3442 575 
Q 3803 722 4122 1019 
L 4122 359 
Q 3791 134 3420 21 
Q 3050 -91 2638 -91 
Q 1578 -91 968 557 
Q 359 1206 359 2328 
Q 359 3453 968 4101 
Q 1578 4750 2638 4750 
Q 3056 4750 3426 4639 
Q 3797 4528 4122 4306 
z
" id="DejaVuSans-43" transform="scale(0.015625)"/>
     </defs>
     <use xlink:href="#DejaVuSans-57"/>
     <use x="96.626953" xlink:href="#DejaVuSans-69"/>
     <use x="124.410156" xlink:href="#DejaVuSans-64"/>
     <use x="187.886719" xlink:href="#DejaVuSans-65"/>
     <use x="249.410156" xlink:href="#DejaVuSans-20"/>
     <use x="281.197266" xlink:href="#DejaVuSans-41"/>
     <use x="349.605469" xlink:href="#DejaVuSans-6e"/>
     <use x="412.984375" xlink:href="#DejaVuSans-67"/>
     <use x="476.460938" xlink:href="#DejaVuSans-6c"/>
     <use x="504.244141" xlink:href="#DejaVuSans-65"/>
     <use x="565.767578" xlink:href="#DejaVuSans-73"/>
     <use x="617.867188" xlink:href="#DejaVuSans-20"/>
     <use x="649.654297" xlink:href="#DejaVuSans-2f"/>
     <use x="683.345703" xlink:href="#DejaVuSans-20"/>
     <use x="715.132812" xlink:href="#DejaVuSans-43"/>
     <use x="784.957031" xlink:href="#DejaVuSans-6f"/>
     <use x="846.138672" xlink:href="#DejaVuSans-72"/>
     <use x="885.501953" xlink:href="#DejaVuSans-72"/>
     <use x="924.365234" xlink:href="#DejaVuSans-65"/>
     <use x="985.888672" xlink:href="#DejaVuSans-6c"/>
     <use x="1013.671875" xlink:href="#DejaVuSans-61"/>
     <use x="1074.951172" xlink:href="#DejaVuSans-74"/>
     <use x="1114.160156" xlink:href="#DejaVuSans-65"/>
     <use x="1175.683594" xlink:href="#DejaVuSans-64"/>
     <use x="1239.160156" xlink:href="#DejaVuSans-20"/>
     <use x="1270.947266" xlink:href="#DejaVuSans-46"/>
     <use x="1321.216797" xlink:href="#DejaVuSans-72"/>
     <use x="1360.080078" xlink:href="#DejaVuSans-65"/>
     <use x="1421.603516" xlink:href="#DejaVuSans-71"/>
     <use x="1485.080078" xlink:href="#DejaVuSans-75"/>
     <use x="1548.458984" xlink:href="#DejaVuSans-65"/>
     <use x="1609.982422" xlink:href="#DejaVuSans-6e"/>
     <use x="1673.361328" xlink:href="#DejaVuSans-63"/>
     <use x="1728.341797" xlink:href="#DejaVuSans-69"/>
     <use x="1756.125" xlink:href="#DejaVuSans-65"/>
     <use x="1817.648438" xlink:href="#DejaVuSans-73"/>
     <use x="1869.748047" xlink:href="#DejaVuSans-20"/>
     <use x="1901.535156" xlink:href="#DejaVuSans-31"/>
     <use x="1965.158203" xlink:href="#DejaVuSans-2f"/>
     <use x="1998.849609" xlink:href="#DejaVuSans-35"/>
    </g>
   </g>
  </g>
  <g id="axes_3">
   <g id="patch_12">
    <path d="M 180 630 
L 687.272727 630 
L 687.272727 382.909091 
L 180 382.909091 
z
" style="fill:#ffffff;"/>
   </g>
   <g id="matplotlib.axis_5">
    <g id="xtick_15">
     <g id="line2d_34">
      <g>
       <use style="stroke:#000000;stroke-width:0.8;" x="241.59465" xlink:href="#m221e821d7b" y="630"/>
      </g>
     </g>
     <g id="text_36">
      <!-- −75 -->
      <g transform="translate(231.042306 644.598437)scale(0.1 -0.1)">
       <use xlink:href="#DejaVuSans-2212"/>
       <use x="83.789062" xlink:href="#DejaVuSans-37"/>
       <use x="147.412109" xlink:href="#DejaVuSans-35"/>
      </g>
     </g>
    </g>
    <g id="xtick_16">
     <g id="line2d_35">
      <g>
       <use style="stroke:#000000;stroke-width:0.8;" x="305.822648" xlink:href="#m221e821d7b" y="630"/>
      </g>
     </g>
     <g id="text_37">
      <!-- −50 -->
      <g transform="translate(295.270304 644.598437)scale(0.1 -0.1)">
       <use xlink:href="#DejaVuSans-2212"/>
       <use x="83.789062" xlink:href="#DejaVuSans-35"/>
       <use x="147.412109" xlink:href="#DejaVuSans-30"/>
      </g>
     </g>
    </g>
    <g id="xtick_17">
     <g id="line2d_36">
      <g>
       <use style="stroke:#000000;stroke-width:0.8;" x="370.050646" xlink:href="#m221e821d7b" y="630"/>
      </g>
     </g>
     <g id="text_38">
      <!-- −25 -->
      <g transform="translate(359.498302 644.598437)scale(0.1 -0.1)">
       <use xlink:href="#DejaVuSans-2212"/>
       <use x="83.789062" xlink:href="#DejaVuSans-32"/>
       <use x="147.412109" xlink:href="#DejaVuSans-35"/>
      </g>
     </g>
    </g>
    <g id="xtick_18">
     <g id="line2d_37">
      <g>
       <use style="stroke:#000000;stroke-width:0.8;" x="434.278644" xlink:href="#m221e821d7b" y="630"/>
      </g>
     </g>
     <g id="text_39">
      <!-- 0 -->
      <g transform="translate(431.097394 644.598437)scale(0.1 -0.1)">
       <use xlink:href="#DejaVuSans-30"/>
      </g>
     </g>
    </g>
    <g id="xtick_19">
     <g id="line2d_38">
      <g>
       <use style="stroke:#000000;stroke-width:0.8;" x="498.506641" xlink:href="#m221e821d7b" y="630"/>
      </g>
     </g>
     <g id="text_40">
      <!-- 25 -->
      <g transform="translate(492.144141 644.598437)scale(0.1 -0.1)">
       <use xlink:href="#DejaVuSans-32"/>
       <use x="63.623047" xlink:href="#DejaVuSans-35"/>
      </g>
     </g>
    </g>
    <g id="xtick_20">
     <g id="line2d_39">
      <g>
       <use style="stroke:#000000;stroke-width:0.8;" x="562.734639" xlink:href="#m221e821d7b" y="630"/>
      </g>
     </g>
     <g id="text_41">
      <!-- 50 -->
      <g transform="translate(556.372139 644.598437)scale(0.1 -0.1)">
       <use xlink:href="#DejaVuSans-35"/>
       <use x="63.623047" xlink:href="#DejaVuSans-30"/>
      </g>
     </g>
    </g>
    <g id="xtick_21">
     <g id="line2d_40">
      <g>
       <use style="stroke:#000000;stroke-width:0.8;" x="626.962637" xlink:href="#m221e821d7b" y="630"/>
      </g>
     </g>
     <g id="text_42">
      <!-- 75 -->
      <g transform="translate(620.600137 644.598437)scale(0.1 -0.1)">
       <use xlink:href="#DejaVuSans-37"/>
       <use x="63.623047" xlink:href="#DejaVuSans-35"/>
      </g>
     </g>
    </g>
    <g id="text_43">
     <!-- Angles -->
     <g transform="translate(416.80277 658.276562)scale(0.1 -0.1)">
      <use xlink:href="#DejaVuSans-41"/>
      <use x="68.408203" xlink:href="#DejaVuSans-6e"/>
      <use x="131.787109" xlink:href="#DejaVuSans-67"/>
      <use x="195.263672" xlink:href="#DejaVuSans-6c"/>
      <use x="223.046875" xlink:href="#DejaVuSans-65"/>
      <use x="284.570312" xlink:href="#DejaVuSans-73"/>
     </g>
    </g>
   </g>
   <g id="matplotlib.axis_6">
    <g id="ytick_16">
     <g id="line2d_41">
      <g>
       <use style="stroke:#000000;stroke-width:0.8;" x="180" xlink:href="#m648d40952f" y="611.182161"/>
      </g>
     </g>
     <g id="text_44">
      <!-- −50 -->
      <g transform="translate(151.895312 614.98138)scale(0.1 -0.1)">
       <use xlink:href="#DejaVuSans-2212"/>
       <use x="83.789062" xlink:href="#DejaVuSans-35"/>
       <use x="147.412109" xlink:href="#DejaVuSans-30"/>
      </g>
     </g>
    </g>
    <g id="ytick_17">
     <g id="line2d_42">
      <g>
       <use style="stroke:#000000;stroke-width:0.8;" x="180" xlink:href="#m648d40952f" y="567.773828"/>
      </g>
     </g>
     <g id="text_45">
      <!-- −40 -->
      <g transform="translate(151.895312 571.573047)scale(0.1 -0.1)">
       <use xlink:href="#DejaVuSans-2212"/>
       <use x="83.789062" xlink:href="#DejaVuSans-34"/>
       <use x="147.412109" xlink:href="#DejaVuSans-30"/>
      </g>
     </g>
    </g>
    <g id="ytick_18">
     <g id="line2d_43">
      <g>
       <use style="stroke:#000000;stroke-width:0.8;" x="180" xlink:href="#m648d40952f" y="524.365495"/>
      </g>
     </g>
     <g id="text_46">
      <!-- −30 -->
      <g transform="translate(151.895312 528.164714)scale(0.1 -0.1)">
       <use xlink:href="#DejaVuSans-2212"/>
       <use x="83.789062" xlink:href="#DejaVuSans-33"/>
       <use x="147.412109" xlink:href="#DejaVuSans-30"/>
      </g>
     </g>
    </g>
    <g id="ytick_19">
     <g id="line2d_44">
      <g>
       <use style="stroke:#000000;stroke-width:0.8;" x="180" xlink:href="#m648d40952f" y="480.957162"/>
      </g>
     </g>
     <g id="text_47">
      <!-- −20 -->
      <g transform="translate(151.895312 484.756381)scale(0.1 -0.1)">
       <use xlink:href="#DejaVuSans-2212"/>
       <use x="83.789062" xlink:href="#DejaVuSans-32"/>
       <use x="147.412109" xlink:href="#DejaVuSans-30"/>
      </g>
     </g>
    </g>
    <g id="ytick_20">
     <g id="line2d_45">
      <g>
       <use style="stroke:#000000;stroke-width:0.8;" x="180" xlink:href="#m648d40952f" y="437.548829"/>
      </g>
     </g>
     <g id="text_48">
      <!-- −10 -->
      <g transform="translate(151.895312 441.348048)scale(0.1 -0.1)">
       <use xlink:href="#DejaVuSans-2212"/>
       <use x="83.789062" xlink:href="#DejaVuSans-31"/>
       <use x="147.412109" xlink:href="#DejaVuSans-30"/>
      </g>
     </g>
    </g>
    <g id="ytick_21">
     <g id="line2d_46">
      <g>
       <use style="stroke:#000000;stroke-width:0.8;" x="180" xlink:href="#m648d40952f" y="394.140496"/>
      </g>
     </g>
     <g id="text_49">
      <!-- 0 -->
      <g transform="translate(166.6375 397.939715)scale(0.1 -0.1)">
       <use xlink:href="#DejaVuSans-30"/>
      </g>
     </g>
    </g>
    <g id="text_50">
     <!-- Spectrum[db] -->
     <g transform="translate(145.815625 540.933452)rotate(-90)scale(0.1 -0.1)">
      <use xlink:href="#DejaVuSans-53"/>
      <use x="63.476562" xlink:href="#DejaVuSans-70"/>
      <use x="126.953125" xlink:href="#DejaVuSans-65"/>
      <use x="188.476562" xlink:href="#DejaVuSans-63"/>
      <use x="243.457031" xlink:href="#DejaVuSans-74"/>
      <use x="282.666016" xlink:href="#DejaVuSans-72"/>
      <use x="323.779297" xlink:href="#DejaVuSans-75"/>
      <use x="387.158203" xlink:href="#DejaVuSans-6d"/>
      <use x="484.570312" xlink:href="#DejaVuSans-5b"/>
      <use x="523.583984" xlink:href="#DejaVuSans-64"/>
      <use x="587.060547" xlink:href="#DejaVuSans-62"/>
      <use x="650.537109" xlink:href="#DejaVuSans-5d"/>
     </g>
    </g>
   </g>
   <g id="line2d_47">
    <path clip-path="url(#p213ee31563)" d="M 203.057851 618.299859 
L 246.73289 618.396474 
L 280.131449 618.736378 
L 294.261608 618.44897 
L 303.253528 618.365007 
L 312.245448 618.534517 
L 323.806487 618.768595 
L 330.229287 618.671753 
L 344.359447 618.318287 
L 350.782246 618.469327 
L 359.774166 618.736469 
L 364.912406 618.650806 
L 380.327125 618.079269 
L 385.465365 618.322538 
L 391.888165 618.626636 
L 395.741845 618.55246 
L 399.595525 618.21084 
L 408.587444 617.117926 
L 411.156564 617.0445 
L 413.725684 617.162439 
L 417.579364 617.617867 
L 421.433044 618.104092 
L 424.002164 618.215358 
L 426.571284 617.987315 
L 427.855844 617.703412 
L 429.140404 617.284973 
L 430.424964 616.716815 
L 431.709524 615.984148 
L 432.994084 615.072319 
L 434.278644 613.966504 
L 435.563204 612.651349 
L 436.847764 611.110558 
L 438.132323 609.326406 
L 439.416883 607.27916 
L 440.701443 604.946354 
L 441.986003 602.301879 
L 443.270563 599.314769 
L 444.555123 595.947567 
L 445.839683 592.154021 
L 447.124243 587.875741 
L 448.408803 583.037153 
L 449.693363 577.537546 
L 450.977923 571.237872 
L 452.262483 563.93743 
L 453.547043 555.329217 
L 454.831603 544.904888 
L 456.116163 531.719825 
L 457.400723 513.661531 
L 458.685283 483.954422 
L 459.969843 400.269147 
L 461.254403 480.405163 
L 462.538963 501.315962 
L 463.823523 511.365537 
L 465.108083 516.271736 
L 466.392643 517.659786 
L 467.677203 515.911619 
L 468.961762 510.587097 
L 470.246322 499.929573 
L 471.530882 477.610621 
L 472.815442 394.140496 
L 474.100002 485.762183 
L 475.384562 514.091739 
L 476.669122 531.592313 
L 477.953682 544.434875 
L 479.238242 554.609061 
L 480.522802 563.018733 
L 481.807362 570.15512 
L 483.091922 576.317025 
L 484.376482 581.700932 
L 485.661042 586.44366 
L 486.945602 590.644778 
L 488.230162 594.379338 
L 489.514722 597.705568 
L 490.799282 600.669767 
L 492.083842 603.309539 
L 493.368402 605.65602 
L 494.652962 607.735451 
L 495.937522 609.570331 
L 497.222082 611.180266 
L 498.506641 612.582634 
L 499.791201 613.793099 
L 501.075761 614.826018 
L 502.360321 615.694787 
L 503.644881 616.41211 
L 504.929441 616.990239 
L 507.498561 617.776771 
L 510.067681 618.149778 
L 512.636801 618.206054 
L 515.205921 618.044471 
L 525.482401 617.04355 
L 529.33608 617.057319 
L 533.18976 617.329128 
L 546.03536 618.529475 
L 551.1736 618.630507 
L 557.5964 618.453887 
L 569.157439 618.052131 
L 575.580239 618.075798 
L 585.856719 618.39393 
L 597.417758 618.697151 
L 607.694238 618.722374 
L 630.816317 618.4336 
L 652.653836 618.310413 
L 664.214876 618.299949 
L 664.214876 618.299949 
" style="fill:none;stroke:#1f77b4;stroke-linecap:square;stroke-width:1.5;"/>
   </g>
   <g id="line2d_48">
    <g clip-path="url(#p213ee31563)">
     <use style="fill:#ff7f0e;stroke:#ff7f0e;" x="459.969843" xlink:href="#m31352822c4" y="394.140496"/>
     <use style="fill:#ff7f0e;stroke:#ff7f0e;" x="472.815442" xlink:href="#m31352822c4" y="394.140496"/>
    </g>
   </g>
   <g id="patch_13">
    <path d="M 180 630 
L 180 382.909091 
" style="fill:none;stroke:#000000;stroke-linecap:square;stroke-linejoin:miter;stroke-width:0.8;"/>
   </g>
   <g id="patch_14">
    <path d="M 687.272727 630 
L 687.272727 382.909091 
" style="fill:none;stroke:#000000;stroke-linecap:square;stroke-linejoin:miter;stroke-width:0.8;"/>
   </g>
   <g id="patch_15">
    <path d="M 180 630 
L 687.272727 630 
" style="fill:none;stroke:#000000;stroke-linecap:square;stroke-linejoin:miter;stroke-width:0.8;"/>
   </g>
   <g id="patch_16">
    <path d="M 180 382.909091 
L 687.272727 382.909091 
" style="fill:none;stroke:#000000;stroke-linecap:square;stroke-linejoin:miter;stroke-width:0.8;"/>
   </g>
   <g id="text_51">
    <!-- Close Angles / Uncorrelated Frequencies -->
    <g transform="translate(312.767301 376.909091)scale(0.12 -0.12)">
     <use xlink:href="#DejaVuSans-43"/>
     <use x="69.824219" xlink:href="#DejaVuSans-6c"/>
     <use x="97.607422" xlink:href="#DejaVuSans-6f"/>
     <use x="158.789062" xlink:href="#DejaVuSans-73"/>
     <use x="210.888672" xlink:href="#DejaVuSans-65"/>
     <use x="272.412109" xlink:href="#DejaVuSans-20"/>
     <use x="304.199219" xlink:href="#DejaVuSans-41"/>
     <use x="372.607422" xlink:href="#DejaVuSans-6e"/>
     <use x="435.986328" xlink:href="#DejaVuSans-67"/>
     <use x="499.462891" xlink:href="#DejaVuSans-6c"/>
     <use x="527.246094" xlink:href="#DejaVuSans-65"/>
     <use x="588.769531" xlink:href="#DejaVuSans-73"/>
     <use x="640.869141" xlink:href="#DejaVuSans-20"/>
     <use x="672.65625" xlink:href="#DejaVuSans-2f"/>
     <use x="706.347656" xlink:href="#DejaVuSans-20"/>
     <use x="738.134766" xlink:href="#DejaVuSans-55"/>
     <use x="811.328125" xlink:href="#DejaVuSans-6e"/>
     <use x="874.707031" xlink:href="#DejaVuSans-63"/>
     <use x="929.6875" xlink:href="#DejaVuSans-6f"/>
     <use x="990.869141" xlink:href="#DejaVuSans-72"/>
     <use x="1030.232422" xlink:href="#DejaVuSans-72"/>
     <use x="1069.095703" xlink:href="#DejaVuSans-65"/>
     <use x="1130.619141" xlink:href="#DejaVuSans-6c"/>
     <use x="1158.402344" xlink:href="#DejaVuSans-61"/>
     <use x="1219.681641" xlink:href="#DejaVuSans-74"/>
     <use x="1258.890625" xlink:href="#DejaVuSans-65"/>
     <use x="1320.414062" xlink:href="#DejaVuSans-64"/>
     <use x="1383.890625" xlink:href="#DejaVuSans-20"/>
     <use x="1415.677734" xlink:href="#DejaVuSans-46"/>
     <use x="1465.947266" xlink:href="#DejaVuSans-72"/>
     <use x="1504.810547" xlink:href="#DejaVuSans-65"/>
     <use x="1566.333984" xlink:href="#DejaVuSans-71"/>
     <use x="1629.810547" xlink:href="#DejaVuSans-75"/>
     <use x="1693.189453" xlink:href="#DejaVuSans-65"/>
     <use x="1754.712891" xlink:href="#DejaVuSans-6e"/>
     <use x="1818.091797" xlink:href="#DejaVuSans-63"/>
     <use x="1873.072266" xlink:href="#DejaVuSans-69"/>
     <use x="1900.855469" xlink:href="#DejaVuSans-65"/>
     <use x="1962.378906" xlink:href="#DejaVuSans-73"/>
    </g>
   </g>
  </g>
  <g id="axes_4">
   <g id="patch_17">
    <path d="M 788.727273 630 
L 1296 630 
L 1296 382.909091 
L 788.727273 382.909091 
z
" style="fill:#ffffff;"/>
   </g>
   <g id="matplotlib.axis_7">
    <g id="xtick_22">
     <g id="line2d_49">
      <g>
       <use style="stroke:#000000;stroke-width:0.8;" x="850.321923" xlink:href="#m221e821d7b" y="630"/>
      </g>
     </g>
     <g id="text_52">
      <!-- −75 -->
      <g transform="translate(839.769579 644.598437)scale(0.1 -0.1)">
       <use xlink:href="#DejaVuSans-2212"/>
       <use x="83.789062" xlink:href="#DejaVuSans-37"/>
       <use x="147.412109" xlink:href="#DejaVuSans-35"/>
      </g>
     </g>
    </g>
    <g id="xtick_23">
     <g id="line2d_50">
      <g>
       <use style="stroke:#000000;stroke-width:0.8;" x="914.549921" xlink:href="#m221e821d7b" y="630"/>
      </g>
     </g>
     <g id="text_53">
      <!-- −50 -->
      <g transform="translate(903.997577 644.598437)scale(0.1 -0.1)">
       <use xlink:href="#DejaVuSans-2212"/>
       <use x="83.789062" xlink:href="#DejaVuSans-35"/>
       <use x="147.412109" xlink:href="#DejaVuSans-30"/>
      </g>
     </g>
    </g>
    <g id="xtick_24">
     <g id="line2d_51">
      <g>
       <use style="stroke:#000000;stroke-width:0.8;" x="978.777918" xlink:href="#m221e821d7b" y="630"/>
      </g>
     </g>
     <g id="text_54">
      <!-- −25 -->
      <g transform="translate(968.225575 644.598437)scale(0.1 -0.1)">
       <use xlink:href="#DejaVuSans-2212"/>
       <use x="83.789062" xlink:href="#DejaVuSans-32"/>
       <use x="147.412109" xlink:href="#DejaVuSans-35"/>
      </g>
     </g>
    </g>
    <g id="xtick_25">
     <g id="line2d_52">
      <g>
       <use style="stroke:#000000;stroke-width:0.8;" x="1043.005916" xlink:href="#m221e821d7b" y="630"/>
      </g>
     </g>
     <g id="text_55">
      <!-- 0 -->
      <g transform="translate(1039.824666 644.598437)scale(0.1 -0.1)">
       <use xlink:href="#DejaVuSans-30"/>
      </g>
     </g>
    </g>
    <g id="xtick_26">
     <g id="line2d_53">
      <g>
       <use style="stroke:#000000;stroke-width:0.8;" x="1107.233914" xlink:href="#m221e821d7b" y="630"/>
      </g>
     </g>
     <g id="text_56">
      <!-- 25 -->
      <g transform="translate(1100.871414 644.598437)scale(0.1 -0.1)">
       <use xlink:href="#DejaVuSans-32"/>
       <use x="63.623047" xlink:href="#DejaVuSans-35"/>
      </g>
     </g>
    </g>
    <g id="xtick_27">
     <g id="line2d_54">
      <g>
       <use style="stroke:#000000;stroke-width:0.8;" x="1171.461912" xlink:href="#m221e821d7b" y="630"/>
      </g>
     </g>
     <g id="text_57">
      <!-- 50 -->
      <g transform="translate(1165.099412 644.598437)scale(0.1 -0.1)">
       <use xlink:href="#DejaVuSans-35"/>
       <use x="63.623047" xlink:href="#DejaVuSans-30"/>
      </g>
     </g>
    </g>
    <g id="xtick_28">
     <g id="line2d_55">
      <g>
       <use style="stroke:#000000;stroke-width:0.8;" x="1235.68991" xlink:href="#m221e821d7b" y="630"/>
      </g>
     </g>
     <g id="text_58">
      <!-- 75 -->
      <g transform="translate(1229.32741 644.598437)scale(0.1 -0.1)">
       <use xlink:href="#DejaVuSans-37"/>
       <use x="63.623047" xlink:href="#DejaVuSans-35"/>
      </g>
     </g>
    </g>
    <g id="text_59">
     <!-- Angles -->
     <g transform="translate(1025.530043 658.276562)scale(0.1 -0.1)">
      <use xlink:href="#DejaVuSans-41"/>
      <use x="68.408203" xlink:href="#DejaVuSans-6e"/>
      <use x="131.787109" xlink:href="#DejaVuSans-67"/>
      <use x="195.263672" xlink:href="#DejaVuSans-6c"/>
      <use x="223.046875" xlink:href="#DejaVuSans-65"/>
      <use x="284.570312" xlink:href="#DejaVuSans-73"/>
     </g>
    </g>
   </g>
   <g id="matplotlib.axis_8">
    <g id="ytick_22">
     <g id="line2d_56">
      <g>
       <use style="stroke:#000000;stroke-width:0.8;" x="788.727273" xlink:href="#m648d40952f" y="626.068079"/>
      </g>
     </g>
     <g id="text_60">
      <!-- −3.0 -->
      <g transform="translate(757.44446 629.867298)scale(0.1 -0.1)">
       <use xlink:href="#DejaVuSans-2212"/>
       <use x="83.789062" xlink:href="#DejaVuSans-33"/>
       <use x="147.412109" xlink:href="#DejaVuSans-2e"/>
       <use x="179.199219" xlink:href="#DejaVuSans-30"/>
      </g>
     </g>
    </g>
    <g id="ytick_23">
     <g id="line2d_57">
      <g>
       <use style="stroke:#000000;stroke-width:0.8;" x="788.727273" xlink:href="#m648d40952f" y="587.413482"/>
      </g>
     </g>
     <g id="text_61">
      <!-- −2.5 -->
      <g transform="translate(757.44446 591.2127)scale(0.1 -0.1)">
       <use xlink:href="#DejaVuSans-2212"/>
       <use x="83.789062" xlink:href="#DejaVuSans-32"/>
       <use x="147.412109" xlink:href="#DejaVuSans-2e"/>
       <use x="179.199219" xlink:href="#DejaVuSans-35"/>
      </g>
     </g>
    </g>
    <g id="ytick_24">
     <g id="line2d_58">
      <g>
       <use style="stroke:#000000;stroke-width:0.8;" x="788.727273" xlink:href="#m648d40952f" y="548.758885"/>
      </g>
     </g>
     <g id="text_62">
      <!-- −2.0 -->
      <g transform="translate(757.44446 552.558103)scale(0.1 -0.1)">
       <use xlink:href="#DejaVuSans-2212"/>
       <use x="83.789062" xlink:href="#DejaVuSans-32"/>
       <use x="147.412109" xlink:href="#DejaVuSans-2e"/>
       <use x="179.199219" xlink:href="#DejaVuSans-30"/>
      </g>
     </g>
    </g>
    <g id="ytick_25">
     <g id="line2d_59">
      <g>
       <use style="stroke:#000000;stroke-width:0.8;" x="788.727273" xlink:href="#m648d40952f" y="510.104287"/>
      </g>
     </g>
     <g id="text_63">
      <!-- −1.5 -->
      <g transform="translate(757.44446 513.903506)scale(0.1 -0.1)">
       <use xlink:href="#DejaVuSans-2212"/>
       <use x="83.789062" xlink:href="#DejaVuSans-31"/>
       <use x="147.412109" xlink:href="#DejaVuSans-2e"/>
       <use x="179.199219" xlink:href="#DejaVuSans-35"/>
      </g>
     </g>
    </g>
    <g id="ytick_26">
     <g id="line2d_60">
      <g>
       <use style="stroke:#000000;stroke-width:0.8;" x="788.727273" xlink:href="#m648d40952f" y="471.44969"/>
      </g>
     </g>
     <g id="text_64">
      <!-- −1.0 -->
      <g transform="translate(757.44446 475.248909)scale(0.1 -0.1)">
       <use xlink:href="#DejaVuSans-2212"/>
       <use x="83.789062" xlink:href="#DejaVuSans-31"/>
       <use x="147.412109" xlink:href="#DejaVuSans-2e"/>
       <use x="179.199219" xlink:href="#DejaVuSans-30"/>
      </g>
     </g>
    </g>
    <g id="ytick_27">
     <g id="line2d_61">
      <g>
       <use style="stroke:#000000;stroke-width:0.8;" x="788.727273" xlink:href="#m648d40952f" y="432.795093"/>
      </g>
     </g>
     <g id="text_65">
      <!-- −0.5 -->
      <g transform="translate(757.44446 436.594312)scale(0.1 -0.1)">
       <use xlink:href="#DejaVuSans-2212"/>
       <use x="83.789062" xlink:href="#DejaVuSans-30"/>
       <use x="147.412109" xlink:href="#DejaVuSans-2e"/>
       <use x="179.199219" xlink:href="#DejaVuSans-35"/>
      </g>
     </g>
    </g>
    <g id="ytick_28">
     <g id="line2d_62">
      <g>
       <use style="stroke:#000000;stroke-width:0.8;" x="788.727273" xlink:href="#m648d40952f" y="394.140496"/>
      </g>
     </g>
     <g id="text_66">
      <!-- 0.0 -->
      <g transform="translate(765.824148 397.939715)scale(0.1 -0.1)">
       <use xlink:href="#DejaVuSans-30"/>
       <use x="63.623047" xlink:href="#DejaVuSans-2e"/>
       <use x="95.410156" xlink:href="#DejaVuSans-30"/>
      </g>
     </g>
    </g>
    <g id="text_67">
     <!-- Spectrum[db] -->
     <g transform="translate(751.364773 540.933452)rotate(-90)scale(0.1 -0.1)">
      <use xlink:href="#DejaVuSans-53"/>
      <use x="63.476562" xlink:href="#DejaVuSans-70"/>
      <use x="126.953125" xlink:href="#DejaVuSans-65"/>
      <use x="188.476562" xlink:href="#DejaVuSans-63"/>
      <use x="243.457031" xlink:href="#DejaVuSans-74"/>
      <use x="282.666016" xlink:href="#DejaVuSans-72"/>
      <use x="323.779297" xlink:href="#DejaVuSans-75"/>
      <use x="387.158203" xlink:href="#DejaVuSans-6d"/>
      <use x="484.570312" xlink:href="#DejaVuSans-5b"/>
      <use x="523.583984" xlink:href="#DejaVuSans-64"/>
      <use x="587.060547" xlink:href="#DejaVuSans-62"/>
      <use x="650.537109" xlink:href="#DejaVuSans-5d"/>
     </g>
    </g>
   </g>
   <g id="line2d_63">
    <path clip-path="url(#pc5ede20dd6)" d="M 811.785124 525.774047 
L 815.638804 525.871073 
L 819.492484 526.168816 
L 823.346164 526.687016 
L 827.199843 527.457707 
L 831.053523 528.523719 
L 833.622643 529.423491 
L 836.191763 530.493668 
L 838.760883 531.751058 
L 841.330003 533.21198 
L 843.899123 534.891325 
L 846.468243 536.801487 
L 849.037363 538.951178 
L 851.606483 541.344178 
L 854.175603 543.978076 
L 856.744722 546.843091 
L 860.598402 551.531771 
L 864.452082 556.597485 
L 877.297682 574.025795 
L 879.866802 577.133253 
L 882.435922 579.960576 
L 885.005042 582.452424 
L 887.574161 584.565582 
L 890.143281 586.272444 
L 892.712401 587.56379 
L 895.281521 588.450471 
L 897.850641 588.963583 
L 900.419761 589.152791 
L 902.988881 589.082567 
L 906.842561 588.652154 
L 918.4036 586.993446 
L 928.68008 586.041267 
L 932.53376 585.787285 
L 935.10288 585.819577 
L 937.672 586.195394 
L 938.95656 586.573761 
L 940.24112 587.114055 
L 941.52568 587.841535 
L 942.81024 588.778777 
L 944.0948 589.943909 
L 945.37936 591.348787 
L 946.66392 592.997228 
L 947.948479 594.883417 
L 950.517599 599.290197 
L 954.371279 606.87436 
L 956.940399 611.833923 
L 958.224959 614.035587 
L 959.509519 615.926483 
L 960.794079 617.409441 
L 962.078639 618.387897 
L 963.363199 618.768595 
L 964.647759 618.464337 
L 965.932319 617.396774 
L 967.216879 615.499256 
L 968.501439 612.719781 
L 969.785999 609.024083 
L 971.070559 604.398909 
L 972.355119 598.855494 
L 973.639679 592.433216 
L 974.924239 585.203318 
L 977.493359 568.785993 
L 982.631598 533.589941 
L 983.916158 525.863465 
L 985.200718 519.193269 
L 986.485278 513.884795 
L 987.769838 510.203397 
L 989.054398 508.350156 
L 990.338958 508.441011 
L 991.623518 510.4929 
L 992.908078 514.419579 
L 994.192638 520.037999 
L 995.477198 527.083959 
L 996.761758 535.234072 
L 1000.615438 562.694483 
L 1003.184558 580.023228 
L 1004.469118 587.503163 
L 1005.753678 593.893419 
L 1007.038238 599.024799 
L 1008.322797 602.771911 
L 1009.607357 605.051504 
L 1010.891917 605.82063 
L 1012.176477 605.074922 
L 1013.461037 602.847102 
L 1014.745597 599.20569 
L 1016.030157 594.253725 
L 1017.314717 588.127197 
L 1018.599277 580.99281 
L 1021.168397 564.498927 
L 1026.306637 529.000173 
L 1028.875757 513.425383 
L 1030.160317 506.693268 
L 1031.444877 500.723251 
L 1032.729437 495.485457 
L 1034.013997 490.8955 
L 1036.583117 483.108665 
L 1040.436796 472.311093 
L 1041.721356 468.274379 
L 1043.005916 463.806935 
L 1044.290476 458.840038 
L 1045.575036 453.352473 
L 1048.144156 440.982719 
L 1053.282396 414.459081 
L 1054.566956 408.642209 
L 1055.851516 403.600898 
L 1057.136076 399.524374 
L 1058.420636 396.551656 
L 1059.705196 394.756863 
L 1060.989756 394.140496 
L 1062.274316 394.628141 
L 1063.558876 396.076813 
L 1064.843436 398.287835 
L 1066.127996 401.024173 
L 1069.981675 409.840973 
L 1071.266235 412.19918 
L 1072.550795 413.956681 
L 1073.835355 414.99695 
L 1075.119915 415.258771 
L 1076.404475 414.739684 
L 1077.689035 413.497686 
L 1078.973595 411.65117 
L 1081.542715 406.904739 
L 1082.827275 404.510315 
L 1084.111835 402.5016 
L 1085.396395 401.202263 
L 1086.680955 400.930161 
L 1087.965515 401.972991 
L 1089.250075 404.563515 
L 1090.534635 408.857761 
L 1091.819195 414.919702 
L 1093.103755 422.715147 
L 1094.388315 432.115907 
L 1095.672875 442.91326 
L 1098.241995 467.583973 
L 1104.664794 532.887877 
L 1107.233914 555.10386 
L 1108.518474 564.715482 
L 1109.803034 573.223541 
L 1111.087594 580.590026 
L 1112.372154 586.806199 
L 1113.656714 591.889406 
L 1114.941274 595.880079 
L 1116.225834 598.838917 
L 1117.510394 600.844202 
L 1118.794954 601.989169 
L 1120.079514 602.379348 
L 1121.364074 602.129785 
L 1122.648634 601.362089 
L 1123.933194 600.201259 
L 1126.502314 597.196764 
L 1129.071434 594.05328 
L 1130.355993 592.679762 
L 1131.640553 591.542791 
L 1132.925113 590.698568 
L 1134.209673 590.184204 
L 1135.494233 590.017599 
L 1136.778793 590.198245 
L 1138.063353 590.708871 
L 1139.347913 591.517764 
L 1140.632473 592.581584 
L 1143.201593 595.261009 
L 1148.339833 601.190573 
L 1149.624393 602.472462 
L 1150.908953 603.584854 
L 1152.193513 604.495272 
L 1153.478073 605.178833 
L 1154.762633 605.618174 
L 1156.047193 605.803136 
L 1157.331753 605.730268 
L 1158.616313 605.402189 
L 1159.900872 604.826857 
L 1161.185432 604.016773 
L 1162.469992 602.988158 
L 1163.754552 601.760119 
L 1166.323672 598.79176 
L 1168.892792 595.292228 
L 1172.746472 589.43453 
L 1183.022952 573.301763 
L 1188.161192 565.821815 
L 1193.299431 558.737906 
L 1199.722231 550.257526 
L 1204.860471 543.786921 
L 1208.714151 539.226679 
L 1212.567831 535.039132 
L 1215.136951 532.511006 
L 1217.706071 530.228487 
L 1220.27519 528.214432 
L 1222.84431 526.483819 
L 1225.41343 525.043012 
L 1227.98255 523.889732 
L 1230.55167 523.013637 
L 1233.12079 522.397344 
L 1235.68991 522.017753 
L 1238.25903 521.847516 
L 1240.82815 521.856509 
L 1244.68183 522.137032 
L 1248.53551 522.643828 
L 1257.527429 524.166348 
L 1263.950229 525.117016 
L 1269.088469 525.604349 
L 1272.942149 525.763335 
L 1272.942149 525.763335 
" style="fill:none;stroke:#1f77b4;stroke-linecap:square;stroke-width:1.5;"/>
   </g>
   <g id="line2d_64">
    <g clip-path="url(#pc5ede20dd6)">
     <use style="fill:#ff7f0e;stroke:#ff7f0e;" x="1068.697115" xlink:href="#m31352822c4" y="394.140496"/>
     <use style="fill:#ff7f0e;stroke:#ff7f0e;" x="1081.542715" xlink:href="#m31352822c4" y="394.140496"/>
    </g>
   </g>
   <g id="patch_18">
    <path d="M 788.727273 630 
L 788.727273 382.909091 
" style="fill:none;stroke:#000000;stroke-linecap:square;stroke-linejoin:miter;stroke-width:0.8;"/>
   </g>
   <g id="patch_19">
    <path d="M 1296 630 
L 1296 382.909091 
" style="fill:none;stroke:#000000;stroke-linecap:square;stroke-linejoin:miter;stroke-width:0.8;"/>
   </g>
   <g id="patch_20">
    <path d="M 788.727273 630 
L 1296 630 
" style="fill:none;stroke:#000000;stroke-linecap:square;stroke-linejoin:miter;stroke-width:0.8;"/>
   </g>
   <g id="patch_21">
    <path d="M 788.727273 382.909091 
L 1296 382.909091 
" style="fill:none;stroke:#000000;stroke-linecap:square;stroke-linejoin:miter;stroke-width:0.8;"/>
   </g>
   <g id="text_68">
    <!-- Close Angles / Correlated Frequencies 1/5 -->
    <g transform="translate(917.234574 376.909091)scale(0.12 -0.12)">
     <use xlink:href="#DejaVuSans-43"/>
     <use x="69.824219" xlink:href="#DejaVuSans-6c"/>
     <use x="97.607422" xlink:href="#DejaVuSans-6f"/>
     <use x="158.789062" xlink:href="#DejaVuSans-73"/>
     <use x="210.888672" xlink:href="#DejaVuSans-65"/>
     <use x="272.412109" xlink:href="#DejaVuSans-20"/>
     <use x="304.199219" xlink:href="#DejaVuSans-41"/>
     <use x="372.607422" xlink:href="#DejaVuSans-6e"/>
     <use x="435.986328" xlink:href="#DejaVuSans-67"/>
     <use x="499.462891" xlink:href="#DejaVuSans-6c"/>
     <use x="527.246094" xlink:href="#DejaVuSans-65"/>
     <use x="588.769531" xlink:href="#DejaVuSans-73"/>
     <use x="640.869141" xlink:href="#DejaVuSans-20"/>
     <use x="672.65625" xlink:href="#DejaVuSans-2f"/>
     <use x="706.347656" xlink:href="#DejaVuSans-20"/>
     <use x="738.134766" xlink:href="#DejaVuSans-43"/>
     <use x="807.958984" xlink:href="#DejaVuSans-6f"/>
     <use x="869.140625" xlink:href="#DejaVuSans-72"/>
     <use x="908.503906" xlink:href="#DejaVuSans-72"/>
     <use x="947.367188" xlink:href="#DejaVuSans-65"/>
     <use x="1008.890625" xlink:href="#DejaVuSans-6c"/>
     <use x="1036.673828" xlink:href="#DejaVuSans-61"/>
     <use x="1097.953125" xlink:href="#DejaVuSans-74"/>
     <use x="1137.162109" xlink:href="#DejaVuSans-65"/>
     <use x="1198.685547" xlink:href="#DejaVuSans-64"/>
     <use x="1262.162109" xlink:href="#DejaVuSans-20"/>
     <use x="1293.949219" xlink:href="#DejaVuSans-46"/>
     <use x="1344.21875" xlink:href="#DejaVuSans-72"/>
     <use x="1383.082031" xlink:href="#DejaVuSans-65"/>
     <use x="1444.605469" xlink:href="#DejaVuSans-71"/>
     <use x="1508.082031" xlink:href="#DejaVuSans-75"/>
     <use x="1571.460938" xlink:href="#DejaVuSans-65"/>
     <use x="1632.984375" xlink:href="#DejaVuSans-6e"/>
     <use x="1696.363281" xlink:href="#DejaVuSans-63"/>
     <use x="1751.34375" xlink:href="#DejaVuSans-69"/>
     <use x="1779.126953" xlink:href="#DejaVuSans-65"/>
     <use x="1840.650391" xlink:href="#DejaVuSans-73"/>
     <use x="1892.75" xlink:href="#DejaVuSans-20"/>
     <use x="1924.537109" xlink:href="#DejaVuSans-31"/>
     <use x="1988.160156" xlink:href="#DejaVuSans-2f"/>
     <use x="2021.851562" xlink:href="#DejaVuSans-35"/>
    </g>
   </g>
  </g>
 </g>
 <defs>
  <clipPath id="pca99d6cbc8">
   <rect height="247.090909" width="507.272727" x="180" y="86.4"/>
  </clipPath>
  <clipPath id="p867e89d6b2">
   <rect height="247.090909" width="507.272727" x="788.727273" y="86.4"/>
  </clipPath>
  <clipPath id="p213ee31563">
   <rect height="247.090909" width="507.272727" x="180" y="382.909091"/>
  </clipPath>
  <clipPath id="pc5ede20dd6">
   <rect height="247.090909" width="507.272727" x="788.727273" y="382.909091"/>
  </clipPath>
 </defs>
</svg>
